/* XPM */
static char *cbc17c80629d432b9654f7e45756665d9IJ11uTBIgiBs227[] = {
/* columns rows colors chars-per-pixel */
"64 64 233 2 ",
"   c #020202",
".  c #0B0401",
"X  c #0B0906",
"o  c #020509",
"O  c #05090C",
"+  c #0B0C0C",
"@  c #090809",
"#  c #130300",
"$  c #1A0300",
"%  c #120B03",
"&  c #1C0C01",
"*  c #120E0C",
"=  c #15120E",
"-  c #1C1309",
";  c #0C0E11",
":  c #070D12",
">  c #110D13",
",  c #0D1114",
"<  c #131313",
"1  c #191513",
"2  c #13161A",
"3  c #1C1C1B",
"4  c #1A1918",
"5  c #0F100B",
"6  c #240C00",
"7  c #2A0D00",
"8  c #250500",
"9  c #330C00",
"0  c #3C0C00",
"q  c #370600",
"w  c #281406",
"e  c #371701",
"r  c #251B13",
"t  c #211D1A",
"y  c #201712",
"u  c #351E10",
"i  c #3A240D",
"p  c #24211D",
"a  c #2C231A",
"s  c #392718",
"d  c #171D22",
"f  c #1B1E21",
"g  c #221E23",
"h  c #1F2428",
"j  c #242322",
"k  c #292624",
"l  c #2D2925",
"z  c #2B2B2B",
"x  c #24282B",
"c  c #322D2C",
"v  c #382A21",
"b  c #33312D",
"n  c #3B322B",
"m  c #2C2E31",
"M  c #272E36",
"N  c #2D3237",
"B  c #353332",
"V  c #3B3935",
"C  c #3C3B3A",
"Z  c #373637",
"A  c #2E302D",
"S  c #450B00",
"D  c #421902",
"F  c #551D00",
"G  c #472408",
"H  c #5A2901",
"J  c #4F3218",
"K  c #693B17",
"L  c #692900",
"P  c #443223",
"I  c #493A2C",
"U  c #573C26",
"Y  c #423E3B",
"T  c #483C32",
"R  c #422F21",
"E  c #673E20",
"W  c #72431A",
"Q  c #47433E",
"!  c #564637",
"~  c #59422C",
"^  c #654328",
"/  c #794E2B",
"(  c #634933",
")  c #6C543E",
"_  c #7A583A",
"`  c #3C3E41",
"'  c #433F40",
"]  c #3D4146",
"[  c #444545",
"{  c #4B4B4A",
"}  c #474747",
"|  c #574D46",
" . c #53514E",
".. c #59514A",
"X. c #545353",
"o. c #5D5C5C",
"O. c #585857",
"+. c #4D5054",
"@. c #685747",
"#. c #765A46",
"$. c #645C57",
"%. c #7C6046",
"&. c #64635E",
"*. c #6E635C",
"=. c #766456",
"-. c #5D5F61",
";. c #5E6265",
":. c #636362",
">. c #646669",
",. c #6A6967",
"<. c #736E6A",
"1. c #79736C",
"2. c #6E7375",
"3. c #7C7D7D",
"4. c #767676",
"5. c #6D6F71",
"6. c #864917",
"7. c #AA5D1F",
"8. c #B5651E",
"9. c #BA651D",
"0. c #AD601A",
"q. c #8D582D",
"w. c #9A5D2B",
"e. c #835835",
"r. c #935F36",
"t. c #A45E27",
"y. c #9F602D",
"u. c #94643C",
"i. c #9B663B",
"p. c #9E6A3B",
"a. c #986236",
"s. c #8D613C",
"d. c #AD6324",
"f. c #A4632D",
"g. c #AD652B",
"h. c #AE692C",
"j. c #AA6828",
"k. c #B56624",
"l. c #BA6624",
"z. c #B56826",
"x. c #BB6A26",
"c. c #B3662A",
"v. c #BC6728",
"b. c #B4692B",
"n. c #BC6C2A",
"m. c #BD712D",
"M. c #BF7127",
"N. c #A36532",
"B. c #A66934",
"V. c #AC6B34",
"C. c #A56C3C",
"Z. c #AB6D3A",
"A. c #A76736",
"S. c #B36C33",
"D. c #BA6E32",
"F. c #B26E39",
"G. c #B86F38",
"H. c #AC713E",
"J. c #B57134",
"K. c #BC7334",
"L. c #B4733C",
"P. c #BB7439",
"I. c #B9793C",
"U. c #C56B1E",
"Y. c #C36D25",
"T. c #C96E24",
"R. c #C26E2A",
"E. c #C16620",
"W. c #C47226",
"Q. c #CB7225",
"!. c #C2712D",
"~. c #C5722B",
"^. c #CA752C",
"/. c #CC782D",
"(. c #CB7928",
"). c #D2752B",
"_. c #D37A28",
"`. c #C47432",
"'. c #CB7531",
"]. c #C37934",
"[. c #CB7932",
"{. c #C37B3C",
"}. c #C8793A",
"|. c #D27B33",
" X c #D27634",
".X c #C76F30",
"XX c #815D42",
"oX c #866548",
"OX c #9C6C44",
"+X c #956B49",
"@X c #9B714B",
"#X c #886C54",
"$X c #936E52",
"%X c #8A725F",
"&X c #957253",
"*X c #9C7353",
"=X c #9D7859",
"-X c #A36E43",
";X c #A96F43",
":X c #A57246",
">X c #AD7343",
",X c #A3724B",
"<X c #AC794A",
"1X c #B37542",
"2X c #B47B4A",
"3X c #B77946",
"4X c #A67A56",
"5X c #84786C",
"6X c #977862",
"7X c #817E7A",
"8X c #877D75",
"9X c #917E78",
"0X c #A97B63",
"qX c #C67D43",
"wX c #7B817F",
"eX c #D68034",
"rX c #DA812D",
"tX c #A9815E",
"yX c #B58254",
"uX c #87827C",
"iX c #A7876D",
"pX c #787C81",
"aX c #7F8489",
"sX c #828384",
"dX c #898A8A",
"fX c #8A8D92",
"gX c #8F9195",
"hX c #969799",
"jX c #948E8B",
"kX c #A49D9A",
"lX c #9BA0A3",
"zX c #AAAFB2",
"xX c #B2BBC0",
/* pixels */
"k.k.l.l.n.b.D.Y.E.T.R.K.K.K.W.Q.~.~.Y.n.D.c.l.E.l.b.S.c.g.t.c.n.D.R.^.Q.Q.Q.'.}.[.[. X X).).~.T.R.x.v.l.k.k.z.z.8.8.8.8.8.8.z.z.",
"k.l.l.l.b.b.n.R.E.T.R.D.K.m.W.Q.~.~.R.n.S.b.E.E.v.l.c.b.d.n.n.c.v.`.Q.Q.Q.(.^.}.[.[. X XQ.T.~.R.Y.v.l.z.k.k.z.8.8.8.8.z.z.z.z.8.",
"l.x.x.z.n.n.n.n.T.T..X`.K.m.W.Q.R.~.m.n.S.c.n.E.l.9.v.v.Y.l.l.R.m.~.Q.Q.Q.(././././. X).).~.~.n.x.x.x.l.b.b.c.z.z.8.z.8.z.8.z.z.",
"n.x.x.x.n.n.W.W.T.T.^.`.K.m.W.W.Y.!.n.D.F.N.v.x.l.l.l.l.Y.9.E.Y.!.!.^.Q._._._.[./././.^.~.R.M.n.n.x.z.c.b.d.z.d.z.z.8.z.z.d.j.z.",
"n.n.Y.n.m.m.W.~.(.(./.`.`.!.!.W.Y.n.n.b.A.6.g.c.c.c.c.n.k.x.Q.W.!.~./.Q._.rX_.rX/.(.Q.~.W.m.n.b.x.z.k.k.z.c.z.z.k.k.k.k.z.z.j.b.",
"M.!.!.R.!.!.~.~.Q./.[.`.`.!.Y.Y.n.c.c.b.i.H N.Z.A.V.g.S.P.R.W.W.`.'./.|.rXrXrX_.).Q.T.R.n.n.n.n.c.l.k.c.z.z.c.z.k.k.k.c.k.d.z.b.",
"!.R.R.R.!.W.~.~././.'.`.`.R.R.x.l.l.l.D.,XG OX,X4X@X,X-X>XI.m.[.`.[.[.|.eXeXrX/.)..XY.Y.n.n.c.x.x.k.k.l.c.z.c.c.k.k.l.z.n.z.z.c.",
"~.~.~.~.W.!.~.(.^.^.^.`.R.R.R.v.n.z.d.V.@X0 e.) ) ( #.oXH >XI.~.`.'.'.|.|.|.|./..XR.Y.R.Y.x.c.l.x.l.l.k.l.c.z.l.z.k.l.z.x.c.n.b.",
"^.~.~.~.~.~.!.W.!.!.!.R.R.x.x.k.z.k.k.V.=X8 $ # . % - & e ,X{.~.^.).). X X X'.'..XR.R.x.n.l.l.l.x.l.l.k.l.k.k.n.l.l.x.Y.x.n.R.n.",
"~.~.~.~.`.W.`.!.m.m.m.n.l.l.c.l.z.z.k.V.=X& # .   X = & i ,XP.^.Q.Q.Q.~.'.^.'.~.R.R.n.x.z.l.l.c.x.k.x.z.c.k.k.l.l.l.x.Y.R.R.!.n.",
"R.~.`.!.W.M.!.m.K.J.m.z.k.l.c.c.d.b.d.Z.*X&         + a U tXP.~.(.Q.^.[.'.`.~.n.M.M.z.z.z.c.z.k.k.x.z.z.l.l.l.l.Y.Y.Y.Y.R.~.~.`.",
"R.~.~.!.!.M.D.n.J.h.h.k.k.l.c.c.z.b.k.B.$X&       o f a R tX3XK.`.].].{.J.K.n.m.b.x.z.b.h.h.z.d.x.z.c.z.c.c.n.n.x.Y.Y.T.T.T.^.R.",
"~.~.~.R.R.v.D.S.3XF.S.c.l.l.g.g.d.x.z.C.oX&         < p n 6XtX>X>X<XyXC.yXV.n.n.z.x.z.z.j.b.z.z.c.b.b.S.D.c.c.n.R.~.~.^.^.^.~.~.",
"~.R.R.n.v.D.S.S.N.L.G.b.l.k.h.V.k.l.z.C.#.&       . = c Y T _ XX_ _ s.@X^ q.Z.b.c.z.8.8.z.b.l.z.c.b.S.h.D.b.v.m.~.^.^.^.^.^.~.^.",
"Y.!.n.n.v.v.c.A.L w.g.t.k.z.L.P.c.k.n.C.@.X       % l [ O.+.*.=.1.1.wX5XiX0X3Xb.n.l.k.k.k.z.l.l.b.b.h.t.L.S.D.v.!.`./.^.~.(.^.~.",
"Y.n.n.n.v.v.c.t.S r.>XC.V.B.3X3Xb.l.b.C.( .   @ * * Y :.-.5.5.7XhXlXuXuXuX6XA.D.l.l.l.l.k.l.x.l.b.S.f.6.A.F.P.D.!.~.`.[.~.`.`.`.",
"n.b.c.n.c.c.n.t.q #.+X+X&X&X_ <Xh.b.F.-XU #   @ < k B X.[  . .,.3.sX3.3.*.oXj.x.9.l.c.G.l.l.l.l.l.V.:X/ XX-XG.R.x.~.M.].].I.eXI.",
"z.n.n.z.c.g.b.A.q R R R P s e +X2XV.:X,XU #     ; 2 3 Z k j B  .o.:.,.5.X.) H.z.l.b.A.y.c.Y.8.R.z.b.C.^ / ,XG.E.W.Y.m.J.J.I.3XL.",
"9.E.E.l.k.V.V.<XJ $.:.X.| | n ! *X*X=X5Xr       o + = 1 1 3 B [ Q T } O.[ ! tXC.A.-Xe.<XV.c.S.g.n.c.:Xe.K u..X.Xx.(.K.I.H.yXq.:X",
"9.9.9.9.c.g.C.4X#XjXgX5. .| V k P P a &     o     @ @   * j }  .T p B [ x l %XtX4X$Xe #X,XA.>XH.h.S.;Xe.0 +X>X;XI.yX:XtXtX=X/ @X",
"k.8.8.k.k.d.B.4X#X8X>.+.Z c c C X.O.Z ; O o o           @ 2 ] -.V 1 t m d O a v I P T =.$X@X*X,Xg.1X,XXXu $.=.#X) i ! ! ! #.iXtX",
"k.k.z.k.k.d.>X4X%X5Xo.' Z m 4 z X.+.` d d ; o           O , N +.z . X > O   X a ..<.&.c P ( G G OX@X&X#.7XhXhXdX2.;.3.sXdXuXiX@X",
"d.k.z.k.l.b.C.oX$.,.-.+.` ` 2 z C { X.} } B <     .     o O h M 2         O   = A ,.2. .I ..| Q I ! | Q lXxXzXaXaXhXgXgXhXuX@.tX",
"d.b.c.c.N.-Xu.^ Z { { ' ` d d X t } :.,.,. .t   .   .   o   d h     @     o   5 l { 5.O.{ O.2.;.}  .<.kXzXzXfX3.,.wXdX3.wXO.n 6X",
"h.g.S.B./ i U n [ [ V B n p 4 5 * p B Y Q Y l .     .       @ ; o o           4 Q X.,.O.&.&.aXfX>.o.1.hXzXhX3.uXwXwX>.>.5.{ r i ",
"b.b.c.y.0 7 | *. .} a 1 l -     X X % * 3 j p @                 o   .         t Q { } } &.>.fXhX2.>.1.uXuX1.,.wXwX..Q Z +.` . . ",
"v.c.k.h.Z.u.w v =.Q p p l - 5 o   o + + O , h M 2 +       .                 X j Z b l A { o.wXhXaX2.1.<.*... . .! j 4 + 4 + p ..",
"7.v.v.c.D.B.9 i _ ~ J P P r 3 2 + + 2 f , O 3 ] [ x @                         2 p p A k x [ ,.jXgXaXwX1.&.&.{ p 5 5 . - & - ! 5X",
"E.9.z.c.K.w.9 @XH.I.1X2X=X~ k x f 2 h m d   , { O.` ,                         o X = B j + m $.dXhXaXpX;.2.wX .,   o u $X$Xe.r.@X",
"9.l.z.b.b.w.0 :X{./.[.qX<X( Y ` d ; 2 j 2   , [ O.] 2                       o O @ X < = o g $.8XfXlXpX;.2.2.[ 2     G @XC.C.y.j.",
"n.0.x.l.b.f.H V.}.~.|.}.;XE T C j @   = j k k Y { ] 2                       O < %       o d  .<.jXkXsX&.X.[ C z 2 . G p.J.h.y.h.",
"k.n.8.8.J.S.V.P.^.Q. X`.1XE P B 4 X   X t l k c x z +   o   o               o @ *     o o : B $.jXhX7X&.C x ] ] j % e u.J.h.z.h.",
"c.l.z.n.n.n.~.~.Q.Q.~.I.:X^ s a =     o O O < l p %         o ; @   O +       . .       o   , -.gXhX<. .` N ` B x 1 G OXh.c.z.k.",
"l.n.z.n.n.Y.~.Q.Q.(.~.P.:XG w ! ! s p     o   O p % %   o o o ; + X , @                     o M pXgX7XO.N d < g m r e OXV.z.k.d.",
"x.x.n.n.m.!.~.Q.T.Q.!.J.H.W J $X,X+X#.a   o O :   . 4       5 j 4 = ; o                   o   O [ 4.7XX.j :   4 k r G i.V.z.8.b.",
"Y.R.n.m.!.!.~.~.Q.~.M.c.J.C.u.-XF.F.&XU X o       X <     @ < p j < O     o o           o X @ 5 Z :.o.Z 2 o . . & # U i.j.b.b.8.",
"R.R.R.`.`.!.!.!.~.n.n.n.c.h.V.g.l.d.i.( # o   @   = <       X 5 3 +       o           @ 5 p p p C } Y z >   & $ $ 6 e.:Xh.z.k.z.",
"T.~.~.`.`.`.`.m.x.R.z.M.x.k.n.l.9.l.Z.J 8 r 7 w w v n + ;   5 = .         o         . * p l b l k B k j * a %.+X@X@XC.C.j.z.x.8.",
"R.^.R.^.~.~.`.M.n.m.l.z.9.l.9.8.z.Z.p.H E -X>X;X1X<X#X& 1 5 .       . X           o + < p A V B g g k k r @.,XH.B.3Xj.j.x.x.9.9.",
"'.~.~.~.~.~.n.n.n.c.c.n.0.l.9.l.j.Z.i.H q.>XS.!.D.1X@X$ w - # & $ # # .           . @ < j A C ' B t j t r oXp.h.j.d.b.8.n.8.8.8.",
"`.`.~.~.Y.Y.l.x.n.c.z.z.z.k.8.k.j.Z.a.H u.C.J.b.S.3XOX8 E oX_ e.XX_ e.#.%         O < f f m m Z ` x j * % %.V.8.8.8.z.z.k.k.k.l.",
"`.~.~.~.Y.Y.U.l.z.c.c.c.k.k.k.k.h.V.a.W r.C.S.m..XP.F.W -X4X<X2X2X<X3XtX-       O X f < , x z z z x 2 X # oXB.l.9.8.8.8.8.z.z.z.",
"`.~.~.R.Y.U.E.l.x.l.z.c.z.d.z.k.k.b.V.q.a.Z.K.R.).).`.K.qXeXI.{.`.}.}.2X6         o ; f 2 h f > 3 k =   % #XA.k.9.8.8.z.h.b.h.b.",
"`.`.~.R.Y.E.E.l.x.x.z.z.c.z.h.z.k.j.V.<Xa.1XD.'.T.)./.eX!.W.m.(. X^.Q.L.6             > 2 2 > . - - # . & &XV.8.z.z.z.b.b.b.b.J.",
"^.~.~.R.n.9.x.l.l.x.z.k.d.z.d.c.c.c.V.2Xw.H.K.`.~./.(./.^.[. X/.|.`.[.3Xw   @       .   X + @ w 7 7 7 7 $ +X>Xk.c.l.c.l.x.n.m.J.",
"~.~.~.W.n.n.x.l.l.l.k.k.z.z.c.z.c.b.S.3XN.J.K.[.(.(./.^.^.).~.^.!.~.~.L.s . . $ # $ $ $ $ $ I %X+Xr.+Xe.q OXF.c.d.c.c.n.n.!.m.m.",
"Q.~.W.n.n.c.x.z.l.k.l.l.k.k.l.c.l.n.K.{.K.].].(.~./.`.[.'.^.Q.|.[.`.Q.J.D 6 e e.OX-Xp.p.u.9 XX4XA.V.C.C.q a.V.c.b.b.n.n.Y.T.~.W.",
"T.T.!.n.M.n.z.x.l.n.8.8.l.k.z.z.l.c.n.n.].`.~.(./.[.!.[.^.~.|.W.W.!.|.n.e _ :X1XL.S.J.J.N.S N.-Xg.d.h.y.q a.D.c.S.n.n.Y.T.T.Q.Q.",
"n.R.x.n.n.x.z.z.l.l.k.k.k.k.l.x.x.n.m.n.!.~.~.^.^.^.[./.^.^.~.Q.^.Y.^.S.9 &X1Xb.b.b.b.d.c.d.c.c.c.k.c.N.q a.P.k.x.n..XR.T.Q.W.(.",
"n.n.x.n.c.n.x.z.z.c.z.l.k.k.x.x.n.M.!.!.R.W.~.~.^.^.^.^.^.~.~.~.~.R.R.V.9 $XP.l.x.b.b.c.k.l.c.c.v.c.l.w.S i.S.x.R.R..X.X~.~.~.W.",
"x.x.x.c.n.z.z.l.l.k.k.z.l.x.x.n.!.!.!.~.~.W.~.Q.^.'.[.~.^.~.W.!.~.Y.~.g.q &XJ.l.z.z.c.c.k.9.l.c.l.c.z.f.S i.m.x.R.R.'..X~.(.~.~.",
"l.x.v.x.z.l.x.l.c.k.k.x.z.z.n.n.!.!.~.^.~.~.~.~.~.~.^.^.^.~.W.!.n.x.n.f.9 $XL.l.z.z.c.k.8.k.k.l.l.z.M.d.H C.m.Y.~.~..X'.(.M.(.`.",
"l.n.x.z.z.z.k.k.8.k.l.z.x.n.n.n.~.W.~.~.^.^.^.^.^.^.^.~.~.R.!.Y.x.z.x.f.9 +XV.l.c.z.h.z.l.9.l.n.n.n.M.b.L.G.n.~.~.W.~.`.W.(.!.~.",
"c.l.z.k.l.k.k.k.k.k.c.l.n.n.n.!.~.W.~.(.^.^.^.^.^.^.^.R.^.~.Y.n.x.b.b.f.q @XV.z.k.k.z.k.l.l.c.x.n.n.!.m.qXK.~.^.~.(.`.!.`.~.~.`.",
"x.x.l.k.z.k.k.k.k.k.k.x.n.n.~.~.W.^.~.^.^.^./.^.~.^.^.^..XR.R.x.b.b.b.f.0 @XV.c.z.z.c.z.l.l.v.v.n.!.W.~.n.{.'.^.(.W.W.!.!.~.`..X",
"k.k.l.c.k.z.k.k.k.k.l.x.n.!.R.~.~.~.(./././././.Q.^.R.~.R.R.n.n.z.d.z.f.0 OXV.l.z.z.b.x.x.Y.R.D.!.~.W.^.'. XR.Q.W.(.W.M.Y.R.R..X",
"8.k.k.k.k.k.k.k.k.k.z.x.n.!.~.~.~.^.(./././.).[.^./.~.!.R.n.n.n.z.j.b.j.0 i.S.c.x.z.n.x.n.W.!.!.~.W.^././. X[.(.(.M.M.M.M.Y.n.R.",
"k.k.k.z.k.d.8.k.8.k.x.x.R.~.~.^./.~.^.(./.|.[./.^.~.~.R.R.n.x.x.z.b.h.f.S p.D.c.c.x.n.n.Y.W.!..X~.~.^.).).)./.^.(.M.M.W.x.x.n.v.",
"k.k.k.d.k.k.k.k.k.k.l.x.R.~.^.~.^./././././.^.[.^.~.~.R.n.n.n.z.b.z.b.d.S w.S.c.x.x.x.W.Q..X`.`.~.`.^.Q.).).'./.W.W.n.x.x.l.n.b.",
"k.k.k.k.k.k.k.k.k.l.x.M.~.~.^.^./.~.(./.(./.^.^.~.R.R.n.x.n.c.z.z.b.b.d.L f.b.n.n.n.M.!.T.^.^.`.~.(.Q.Q.).).^.`.M.M.n.l.x.l.v.c.",
"k.k.k.k.k.d.k.k.z.z.x.n.~.`.^.'./.^.[.^.^.^.~.W.R.Y.R.x.n.x.c.l.c.k.c.v.c.G.S.c.Y.Y.!.~.T.~.`.`.~.~.~.^.).Q.~.`.R.R.n.v.9.M.k.b.",
"k.k.k.k.k.k.k.k.x.x.x.R.~.^.'.^.^./.~.^.^.^.~.!.R.n.n.x.x.c.l.c.l.k.l.c.`.G.c.R.R.Y.W.~.Q.~.^.`.'.~.`.Q.T.).~.K.D.v.Y.E.x.9.z.j.",
"k.k.k.k.k.k.k.k.z.x.x.Y.~.^./././.~./.~.~.~.W.W.Y.n.x.z.z.z.l.k.l.l.v.8.v.c.v.!.~.W.~.Q.Q.Q.~.`.~.~.~.(.Q.Q.D.K.R.v.Y.v.z.8.z.j.",
"k.d.k.k.k.k.k.k.x.k.n.R.~.^./.'.[./.`./.(.~.W.!.x.x.n.z.z.z.d.k.c.n.v.v.k.D.v.b.R.W.^.^.Q.~.~.`.^.`.~.W.Q.T.K.D.D.Y.x.8.M.8.z.z."
};
