/* XPM */
static char *a717263aab39404dff7e78f9db3859b4SBuiX3IfDZFXi0FC[] = {
/* columns rows colors chars-per-pixel */
"64 64 173 2 ",
"   c #010101",
".  c #0A0604",
"X  c #0D0805",
"o  c #060708",
"O  c #0C0B0B",
"+  c #130B05",
"@  c #1A0F07",
"#  c #130E0C",
"$  c #1E1107",
"%  c #15110E",
"&  c #1B120B",
"*  c #0E0F10",
"=  c #131313",
"-  c #1C1612",
";  c #1F1A17",
":  c #171819",
">  c #1C1B1B",
",  c #231409",
"<  c #251509",
"1  c #2C1A0C",
"2  c #331D0C",
"3  c #241B15",
"4  c #2B1D13",
"5  c #211E1C",
"6  c #3E230F",
"7  c #25211F",
"8  c #2C231E",
"9  c #342316",
"0  c #3F2612",
"q  c #38281B",
"w  c #232222",
"e  c #2B2624",
"r  c #2D2B2B",
"t  c #362B22",
"y  c #392D23",
"u  c #312D2B",
"i  c #39312D",
"p  c #2F2F30",
"a  c #363333",
"s  c #3E3634",
"d  c #3E3936",
"f  c #3F3F3F",
"g  c #44260E",
"h  c #512D0F",
"j  c #422611",
"k  c #462912",
"l  c #4C2B13",
"z  c #412D1E",
"x  c #522F13",
"c  c #543114",
"v  c #5D3616",
"b  c #5C3618",
"n  c #613612",
"m  c #643917",
"M  c #6C3D17",
"N  c #653B19",
"B  c #6C3E19",
"V  c #4E392D",
"C  c #633E22",
"Z  c #6D401C",
"A  c #72421C",
"S  c #7A461C",
"D  c #7F481C",
"F  c #4A423F",
"G  c #554439",
"H  c #6B472D",
"J  c #7D4B23",
"K  c #724A2B",
"L  c #7D512F",
"P  c #674A35",
"I  c #6E513E",
"U  c #7B573B",
"Y  c #464646",
"T  c #4D4745",
"R  c #5B4C46",
"E  c #595555",
"W  c #785B48",
"Q  c #635954",
"!  c #695E57",
"~  c #635D5B",
"^  c #66605F",
"/  c #75645A",
"(  c #6D6664",
")  c #696868",
"_  c #79716E",
"`  c #7A7573",
"'  c #824B1E",
"]  c #884E1E",
"[  c #8D511F",
"{  c #844E23",
"}  c #884F24",
"|  c #8D5221",
" . c #8B5529",
".. c #945521",
"X. c #985722",
"o. c #9C5A24",
"O. c #93582B",
"+. c #9B5E2C",
"@. c #8B5B34",
"#. c #985E30",
"$. c #A35D24",
"%. c #A55F27",
"&. c #9F602D",
"*. c #8E603D",
"=. c #95623B",
"-. c #A66126",
";. c #AC6226",
":. c #A2612F",
">. c #A9652D",
",. c #B56625",
"<. c #B86726",
"1. c #B76826",
"2. c #B96927",
"3. c #B46728",
"4. c #B86728",
"5. c #B56928",
"6. c #BC6B29",
"7. c #A76631",
"8. c #C16E2A",
"9. c #C5722B",
"0. c #CA752C",
"q. c #CF782D",
"w. c #D0772D",
"e. c #D2792E",
"r. c #D57C2F",
"t. c #D87C2F",
"y. c #D87D30",
"u. c #8A674D",
"i. c #9B6942",
"p. c #926849",
"a. c #876C5B",
"s. c #8F7058",
"d. c #93725A",
"f. c #A27A5C",
"g. c #86746B",
"h. c #957965",
"j. c #8D807A",
"k. c #95857C",
"l. c #A98263",
"z. c #AA8C76",
"x. c #8F8785",
"c. c #9E928E",
"v. c #929191",
"b. c #9B9391",
"n. c #AF9B8E",
"m. c #A89B95",
"M. c #B8A49E",
"N. c #A7A3A2",
"B. c #B6A9A5",
"V. c #B5AAA5",
"C. c #BCB2AE",
"Z. c #BBB5B3",
"A. c #C2AEAB",
"S. c #C2B4B1",
"D. c #CABBB6",
"F. c #C4BDBB",
"G. c #CAC1BE",
"H. c #CBC4C3",
"J. c #D6CDCB",
"K. c #DACECA",
"L. c #D7D0CF",
"P. c #DBD2CF",
"I. c #DFD8D8",
"U. c #E4DDDC",
"Y. c #E6E0DF",
"T. c #E7E2E2",
"R. c #EBE4E3",
"E. c #F2EBEB",
"W. c #F7F0EF",
"Q. c #F7F0F0",
"!. c #FBF4F4",
"~. c #FDF7F8",
"^. c #FFFBFB",
/* pixels */
",.,.1.<.<.6.6.6.6.8.8.8.9.9.9.9.9.9.6.6.6.4.<.<.<.<.<.3.,.,.3.4.6.9.9.9.0.0.0.0.w.w.w.q.q.9.0.8.8.<.4.<.2.,.,.,.,.,.,.;.,.,.;.,.",
",.,.1.1.<.6.6.8.8.8.8.9.9.9.9.6.9.9.8.6.6.4.<.4.<.4.4.4.,.,.4.4.6.9.9.9.0.0.0.0.w.w.w.q.q.9.8.8.8.4.<.<.,.,.,.,.,.,.,.,.,.,.,.,.",
"1.1.1.6.6.6.6.6.8.8.9.8.9.6.9.9.9.8.6.6.6.1.4.1.3.4.3.4.1.1.1.6.9.9.9.0.0.q.q.e.w.w.q.q.0.0.8.8.6.6.<.<.,.,.,.,.,.,.,.,.,.,.,.,.",
"6.6.6.6.6.8.8.9.8.9.9.0.9.9.9.9.8.8.6.6.4.1.1.4.<.<.3.4.5.6.6.6.6.0.0.0.q.e.e.e.w.0.0.0.8.8.8.8.<.6.<.<.,.,.,.,.,.,.,.,.,.,.,.,.",
"6.8.6.8.8.8.9.9.0.0.0.0.9.9.9.6.8.6.6.6.2.,.,.,.,.,.4.1.6.6.9.9.9.0.0.q.e.r.r.e.q.0.9.9.8.8.8.6.6.<.1.,.2.,.,.,.,.,.,.,.,.,.,.;.",
"8.8.9.6.8.9.9.0.0.0.0.0.9.9.9.6.6.2.1.1.,.,.,.,.,.,.1.4.6.9.9.9.0.0.q.e.r.t.t.r.q.0.8.8.8.8.2.6.1.<.,.1.,.,.,.,.,.,.,.,.,.,.,.,.",
"9.9.8.9.9.9.9.9.0.0.0.9.0.6.6.6.2.2.2.,.2.,.,.,.,.,.1.6.8.9.0.q.0.q.e.e.r.y.r.r.q.9.8.8.<.6.6.2.1.<.,.,.,.2.,.2.,.,.1.1.1.1.,.,.",
"9.9.9.9.9.9.9.0.0.0.0.9.9.6.6.5.2.,.,.,.,.,.,.,.,.,.6.6.6.5.;.;.;.3.6.e.r.r.e.q.0.8.6.6.6.<.<.<.1.<.1.,.,.,.,.,.,.,.1.1.2.1.1.,.",
"9.9.9.9.0.9.9.0.9.9.0.6.6.6.5.5.,.,.,.,.,.,.,.,.1.4.2.3.o.S v v v N [ 6.q.w.q.0.9.8.6.6.<.<.<.1.1.1.1.1.,.,.1.1.,.1.2.8.1.8.2.8.",
"9.9.9.9.9.9.9.8.9.6.6.6.6.5.5.5.,.,.,.,.,.,.,.,.6.4.;.} k $ X . . . 0 ..9.0.9.9.8.8.6.4.<.1.1.1.1.1.1.1.,.,.1.1.2.2.1.2.8.8.8.8.",
"9.9.9.9.9.9.8.8.6.6.6.6.1.,.5.5.,.,.,.,.,.,.,.,.6.;.#.a.! d =       + c -.9.9.9.9.6.4.4.1.,.,.1.1.,.1.1.1.1.<.6.2.2.8.8.8.8.9.9.",
"6.9.9.8.9.6.8.6.6.6.5.5.1.,.3.3.,.,.,.,.,.,.,.2.6.:.d.C.F.N.( w o o o $ S ,.9.6.1.4.6.1.1.,.1.,.,.<.1.1.1.1.<.2.8.8.9.9.9.9.9.9.",
"9.9.9.6.8.6.6.6.1.,.,.,.,.,.,.;.,.,.,.,.<.<.<.6.,.i.n.E.^.^.F.^ = = * X 0 o.6.6.4.6.1.1.1.1.,.1.<.,.<.6.2.2.2.8.8.9.9.9.9.9.0.9.",
"9.6.9.6.6.6.4.4.1.,.,.,.,.,.,.,.,.,.,.,.<.<.8.8.$.f.F.Q.Q.!.R.b.7 > > * $ ' 3.6.1.1.1.,.1.,.1.1.<.<.,.<.2.2.8.8.8.9.0.9.9.0.0.0.",
"6.9.6.6.4.<.,.,.3.,.,.,.,.,.,.,.,.,.<.<.1.6.8.8.+.z.L.K.D.P.R.Z.u O = > - N -.6.1.<.<.2.,.,.1.1.<.<.<.<.2.2.2.8.9.9.0.0.0.9.9.0.",
"6.6.6.6.4.3.,.,.,.,.,.;.,.,.,.,.,.2.1.<.8.8.8.<.=.n.I.S.M.D.U.H.a o * > % l ..6.1.1.,.,.1.1.1.1.<.<.6.<.2.2.8.8.9.9.9.9.0.0.9.0.",
"6.6.4.1.1.1.,.,.,.,.,.,.,.,.,.,.,.<.1.8.6.1.3.+.d.D.R.D.A.G.T.G.s   o = . 1 ' ,.,.,.1.,.1.1.1.1.6.2.2.2.6.6.6.8.8.8.9.9.0.9.w.9.",
"1.1.4.4.1.1.,.,.,.,.,.,.,.,.<.<.2.2.1.1.5.7.=.h.B.U.^.U.P.R.E.Z.r o       + m ;.,.1.,.1.1.1.1.6.,.<.<.8.6.<.6.8.8.8.8.9.9.9.9.9.",
"1.1.<.4.,.,.,.,.,.,.,.,.,.,.,.<.2.<.,.o.*.h.M.P.E.!.!.!.!.^.T.b.>           l ..6.,.1.,.,.1.1.1.<.8.<.8.<.8.8.8.8.8.9.9.9.9.9.9.",
"<.,.,.,.,.,.,.,.,.,.,.<.,.,.<.<.2.,.' H / j.c.V.V.G.Y.~.~.^.U.x.=           g [ 2.,.1.1.1.1.1.6.<.2.2.2.8.8.8.9.9.9.9.9.8.8.8.8.",
",.,.,.,.,.;.,.,.<.<.,.<.2.2.2.2.6.>.] K U u.p.u.g.M.Y.!.^.^.I.x.=           2 D ,.1.,.2.1.2.2.2.<.2.<.8.8.8.8.9.9.0.9.9.8.8.8.<.",
",.,.,.,.,.,.,.,.<.2.2.2.2.2.8.6.6.6.5.&.&.$.-.[ s.S.!.^.^.^.I.j.%       .   < A ,.,.2.,.1.1.2.2.2.2.<.8.8.9.9.0.w.0.0.9.8.<.2.,.",
",.,.,.,.,.,.,.,.<.2.<.6.6.6.8.8.9.9.9.0.0.q.9.6.l.D.!.!.!.^.J.( #   . # X   < Z ,.,.,.2.1.2.2.2.8.8.2.8.8.9.0.0.q.q.0.9.8.6.,.2.",
",.,.,.,.,.2.,.,.2.<.6.6.6.8.8.9.9.9.0.0.0.q.9.6.p.k.C.J.E.Q.C.s o   # 3 +   $ M ,.,.2.,.1.2.2.2.2.8.8.8.9.0.0.w.0.0.0.9.6.2.,.,.",
",.,.;.,.1.1.1.1.2.2.8.2.8.8.8.9.0.0.0.0.0.0.0.5.*.W _ k.J.I.x.=     & 3 +   + l -.;.,.,.5.,.2.6.6.8.9.9.9.0.9.0.0.9.9.8.2.1.1.,.",
",.,.,.,.1.1.2.8.2.8.8.8.8.9.9.9.9.9.9.9.0.q.6.&.K G R / C.V.~ .     # 3 .   . z *.@. .| X.$.5.6.9.9.9.9.9.9.0.0.0.9.9.8.2.1.,.,.",
",.,.,.,.2.2.2.2.2.8.8.9.9.9.9.9.9.9.9.9.9.6.5.[ C V R _ m._ r       # 3 X   . i / U K A S ..;.6.8.9.9.0.0.0.9.9.9.8.8.6.2.1.,.,.",
",.,.,.,.2.2.2.8.8.9.9.9.w.9.9.9.9.9.6.6.5.5.>.&.S H Q k./ r .       O - +   . q L #.o.$.-.,.2.6.9.9.0.9.0.9.9.9.8.8.8.6.1.1.,.,.",
",.,.,.,.1.1.2.8.9.9.0.0.9.0.9.9.6.6.,.o.[ O.U *.I G s E e . o * = o   o       4 P U J ..,.6.1.8.9.9.9.9.9.9.9.9.8.8.8.2.2.1.1.1.",
",.,.,.1.1.2.2.8.9.w.0.w.0.9.9.9.9.6.1.-.-.&.&.=.H q ; e X   = > : o : r >     3 K L J X.,.1.8.9.9.9.0.9.9.9.9.8.2.2.,.1.1.1.,.,.",
",.,.,.1.2.2.8.9.9.w.9.w.0.9.9.9.6.6.2.6.2.2.1.,.Z 1 X & o o = > O O f ` ) p o 1 S -.$.;.,.6.8.8.9.9.9.9.9.9.8.8.2.2.,.1.,.,.,.,.",
",.,.,.,.2.8.8.9.9.w.w.9.9.9.8.2.6.6.1.1.1.1.2.1.Z 1 * ; X o o .   # Y v.N.) r 9 S 1.6.6.6.8.8.9.9.9.9.9.9.9.9.8.2.1.1.,.,.,.,.1.",
"<.2.<.<.8.8.8.9.9.0.0.0.8.8.8.<.2.2.,.,.,.,.,.,.M 1 w F 7 .         o w Y E E T Z 5.6.6.6.0.6.0.6.6.0.6.9.9.6.8.5.5.1.,.1.,.1.,.",
"2.<.8.<.8.8.9.9.9.9.9.9.8.8.<.1.2.1.,.2.,.,.,.,.n 9 E N.Q 5 o           o > w y Z 6.6.0.0.6.0.6.0.6.6.0.6.9.6.6.6.1.1.1.,.1.,.1.",
"<.8.<.8.8.8.9.9.9.9.8.8.8.<.1.1.,.,.,.,.,.,.,.;.h 8 ) J.g.a *                 & v 6.9.9.0.0.0.0.0.6.6.6.6.6.6.6.5.1.1.1.1.,.,.,.",
"6.6.8.8.8.9.9.9.9.8.8.<.8.<.<.,.,.,.,.,.,.,.,.$.g 3 ^ H._ a =                 + h 5.9.9.0.6.6.0.9.6.0.6.6.6.6.1.1.1.1.1.,.,.,.,.",
"8.8.8.8.9.9.9.9.8.8.8.<.,.1.,.,.,.,.,.1.,.2.,.$.g % T Z.( e O                 . 6 ;.9.9.9.9.9.9.6.6.6.6.6.6.1.1.1.1.,.,.,.,.,.1.",
"9.9.9.0.9.9.9.9.8.8.2.1.,.,.,.,.,.,.,.,.,.1.,...6 . d c.Q e O                 . 6 ;.9.0.0.9.0.9.0.9.6.6.5.5.,.,.,.,.1.,.,.1.1.,.",
"9.9.9.9.9.9.8.8.8.6.2.1.,.,.,.,.,.,.1.,.,.1.,.[ 2   > T u = o                   9 $.9.9.9.9.9.9.6.6.6.5.5.1.1.,.,.,.,.,.,.,.,.,.",
"w.9.9.0.9.8.8.8.6.2.<.<.,.,.,.,.,.,.,.1.1.1.,.' 1     O o                       , ..9.0.9.9.9.6.6.6.6.6.5.5.5.,.,.,.,.,.,.,.,.,.",
"9.9.9.9.8.8.6.<.6.1.1.,.,.,.,.,.,.,.,.,.1.6.,.A $               o . o           $ [ 6.0.9.9.6.9.6.1.,.,.,.;.,.,.,.,.,.,.,.,.;.,.",
"9.9.9.9.8.8.6.<.1.,.<.<.,.,.,.,.,.,.1.1.1.8.,.n $ o = O         o = o     .     $ } 6.0.9.9.6.6.1.,.,.,.,.,.,.,.,.,.,.,.,.,.,.,.",
"w.0.9.8.8.8.6.<.2.2.,.,.,.,.,.,.,.,.,.1.2.6.,.c + O > O o o     * = %   . ; #   + A 5.9.6.6.6.6.1.1.,.,.,.,.,.,.,.,.,.,.1.1.,.,.",
"9.9.9.8.<.6.<.<.2.,.1.1.,.,.,.,.,.,.1.1.6.9.,.g # = w o = = o . * > O   o 5 =   X b -.0.6.6.6.1.1.,.;.,.,.,.,.;.,.,.,.,.1.1.1.1.",
"9.9.9.8.8.<.<.<.1.1.1.,.,.,.,.,.,.1.5.6.9.9.;.6 % > :   = : O   = = O   o > =   . l $.9.6.1.,.1.,.,.,.,.,.,.,.,.1.1.1.1.6.1.8.8.",
"w.9.9.8.8.<.<.<.,.,.,.1.,.,.,.,.,.5.6.6.9.6.-.6 > > o . = > =   = > O     > *   . 1 [ 6.6.1.3.,.,.,.;.,.,.,.,.,.1.1.1.1.8.8.8.8.",
"9.9.8.8.8.8.<.<.1.,.,.1.,.,.,.,.,.1.6.6.9.6...q > =     o 7 > o = = o   o > =     $ S 3.6.1.,.3.,.,.,.,.,.,.1.1.1.1.1.8.1.8.9.9.",
"8.8.8.8.<.<.<.<.1.,.1.,.,.,.,.1.1.6.6.6.0.6.| y > o       > > o > = o   o > %     X N -.1.,.,.3.,.;.,.,.,.,.,.1.1.1.1.8.9.9.9.9.",
"8.8.<.8.6.6.<.<.<.<.,.,.,.,.,.2.6.6.6.9.9.5.J t : o       O = O w =     O > O       h ..1.,.,.,.;.,.,.;.1.,.1.1.6.6.6.9.9.9.9.9.",
"<.8.8.<.<.<.<.<.<.<.,.,.,.,.<.2.6.9.9.6.9.;.Z 8 *           o = w *     O > O       6 D 1.,.,.,.,.,.,.,.1.1.1.5.6.9.9.9.9.9.9.9.",
"<.<.<.<.<.<.,.,.<.,.,.,.1.1.2.8.6.9.9.9.0.-.b %             o > > o     O > O       $ Z ;.1.1.,.1.1.,.,.1.5.1.6.6.9.9.9.9.0.9.9.",
"<.<.<.<.<.,.,.,.,.,.<.,.1.6.<.8.6.0.9.9.0.-.k X             . > > O     o > =       X h $.,.1.1.1.1.1.1.6.6.6.6.9.9.9.9.9.9.0.9.",
"<.<.<.<.<.<.,.,.,.,.,.1.1.2.8.8.0.9.9.9.0...1 .             o > 5 O       > : O       g [ 1.1.1.1.8.1.8.8.8.9.9.0.9.9.9.0.0.9.9.",
"<.<.<.<.,.,.,.,.,.,.,.2.6.6.8.8.9.9.0.9.5.S +               o > > O       = 5 :       1 D ,.2.6.1.8.8.9.9.8.9.9.0.9.9.9.0.9.9.9.",
"<.<.<.<.<.,.,.,.,.,.,.2.6.6.9.9.9.9.9.0.X.k                 # e =         o 5 5       $ Z ,.6.6.9.8.9.9.9.0.9.9.9.9.9.9.9.9.9.9.",
"<.<.<.<.,.,.,.,.,.,.1.1.6.6.9.9.9.0.0.5.N +                 % 3 o           * =       $ n 1.6.6.9.9.9.9.0.0.0.0.9.9.9.9.8.8.8.8.",
",.,.,.,.,.,.,.,.,.,.1.6.6.8.9.9.0.0.0.&.x X               # 3 3               o X $ 0 m [ 1.9.9.9.9.9.0.q.0.q.0.9.9.9.6.9.9.6.6.",
",.,.,.,.,.,.,.,.,.,.1.1.8.9.9.0.0.0.0.5.' b k 9 < @ .     + - O             + 1 h A [ -.6.6.6.9.9.0.9.0.0.q.0.0.0.9.9.6.5.6.6.6.",
",.,.,.,.,.,.,.,.,.,.1.6.8.8.0.9.0.0.0.q.0.6.>...S v j 1 , , , + X . . . + 1 x ' $.1.9.9.0.0.0.0.9.0.0.0.q.q.0.0.9.9.6.6.6.6.1.1.",
",.;.,.,.,.;.,.,.,.,.2.8.8.9.0.0.q.9.q.q.0.0.0.9.9.4.%...{ S B x x 6 2 2 n ] $.,.8.1.8.9.6.0.6.0.9.9.9.0.0.0.0.9.9.6.6.1.1.1.1.1.",
",.,.,.,.,.,.,.,.,.1.6.6.9.0.9.0.0.q.0.0.0.0.9.9.9.8.6.1.,.,.$.$.$.X...X.$.,.<.6.1.9.9.9.9.9.9.9.0.9.9.0.0.0.9.9.9.8.6.1.1.1.1.1.",
",.,.,.,.,.,.,.,.,.1.6.8.9.9.0.q.0.0.0.0.0.0.9.9.6.6.6.6.4.<.<.4.4.4.<.4.6.<.4.6.1.9.9.9.9.0.9.9.9.0.0.9.9.9.9.9.6.6.6.6.1.1.1.1.",
",.,.;.,.,.,.,.1.6.,.6.8.9.0.0.q.0.0.0.0.0.0.9.8.8.6.1.6.<.,.,.<.<.<.<.<.<.<.6.8.9.9.0.9.9.0.9.0.0.9.9.0.9.9.9.9.6.1.1.1.,.,.1.1.",
",.,.,.,.,.,.,.1.,.6.6.8.9.0.0.0.q.0.9.0.9.9.9.8.8.6.4.1.,.,.,.,.<.4.<.<.<.<.<.8.9.9.9.9.0.9.0.9.9.0.9.9.9.9.6.8.8.6.1.,.,.,.1.1."
};
