/* XPM */
static char *e8615df37f6647208c1c077e8f8e65cb5o0ZHVUVw3EysDue[] = {
/* columns rows colors chars-per-pixel */
"64 64 246 2 ",
"   c #161D25",
".  c #15242C",
"X  c #1A252D",
"o  c #142A2D",
"O  c #1D2A2E",
"+  c #1C2625",
"@  c #0E293A",
"#  c #142532",
"$  c #1B2631",
"%  c #162933",
"&  c #1B2A33",
"*  c #162B3C",
"=  c #1D2C39",
"-  c #162739",
";  c #1E3135",
":  c #232A2F",
">  c #262729",
",  c #352829",
"<  c #3A342A",
"1  c #232C33",
"2  c #242F39",
"3  c #272C34",
"4  c #37273A",
"5  c #2C3236",
"6  c #23323A",
"7  c #2C343C",
"8  c #283638",
"9  c #34343A",
"0  c #343A3E",
"q  c #3B3B3C",
"w  c #383536",
"e  c #27322A",
"r  c #62231C",
"t  c #42352B",
"y  c #473C38",
"u  c #513F35",
"i  c #53352C",
"p  c #653C27",
"a  c #6E2727",
"s  c #4D261F",
"d  c #3B433E",
"f  c #58422D",
"g  c #484439",
"h  c #5B4A3D",
"j  c #574736",
"k  c #674729",
"l  c #7A4B28",
"z  c #644A38",
"x  c #774D32",
"c  c #6D543A",
"v  c #74543A",
"b  c #7C5536",
"n  c #7A562D",
"m  c #122D41",
"M  c #2A3642",
"N  c #2E3A42",
"B  c #273946",
"V  c #343C43",
"C  c #3B3E44",
"Z  c #373C48",
"A  c #2A2E47",
"S  c #453C46",
"D  c #3C4345",
"F  c #35424A",
"G  c #3C434B",
"H  c #3C4A4C",
"J  c #384745",
"K  c #3B4A54",
"L  c #30464A",
"P  c #3F4B63",
"I  c #434442",
"U  c #4C4A44",
"Y  c #42454D",
"T  c #444B4C",
"R  c #4A4748",
"E  c #554D44",
"W  c #5A5347",
"Q  c #444B52",
"!  c #494A52",
"~  c #524D53",
"^  c #4C5255",
"/  c #4B545A",
"(  c #585758",
")  c #4B534D",
"_  c #685746",
"`  c #775B46",
"'  c #685955",
"]  c #6E5352",
"[  c #7C6246",
"{  c #686457",
"}  c #74665A",
"|  c #77715E",
" . c #515D64",
".. c #585C65",
"X. c #4F5A66",
"o. c #5A6265",
"O. c #696A6A",
"+. c #716769",
"@. c #797768",
"#. c #6A7379",
"$. c #74767A",
"%. c #6E7075",
"&. c #685A6B",
"*. c #BA1F1A",
"=. c #932716",
"-. c #A7281C",
";. c #B72419",
":. c #AB331A",
">. c #913C31",
",. c #952C27",
"<. c #B42623",
"1. c #BC3227",
"2. c #A63329",
"3. c #C22117",
"4. c #8A561C",
"5. c #B15E1D",
"6. c #AE631D",
"7. c #B4641D",
"8. c #BC651D",
"9. c #BA681A",
"0. c #BE711F",
"q. c #834B26",
"w. c #865529",
"e. c #975C29",
"r. c #845932",
"t. c #8C5B34",
"y. c #885535",
"u. c #985C35",
"i. c #854738",
"p. c #A65E28",
"a. c #B75D24",
"s. c #A65C35",
"d. c #B84B32",
"f. c #986527",
"g. c #8B633D",
"h. c #896235",
"j. c #986437",
"k. c #967335",
"l. c #AD6324",
"z. c #A4622C",
"x. c #AC652A",
"c. c #AA6927",
"v. c #B56625",
"b. c #B96725",
"n. c #B76826",
"m. c #BA6926",
"M. c #B5652A",
"N. c #BA6629",
"B. c #B46A2B",
"V. c #BC6B29",
"C. c #BF722C",
"Z. c #B97428",
"A. c #A56532",
"S. c #AD6B33",
"D. c #A76838",
"F. c #B36632",
"G. c #B46A32",
"H. c #BC6D32",
"J. c #B6653B",
"K. c #BC7233",
"L. c #B97537",
"P. c #AA762F",
"I. c #C36B1E",
"U. c #C5691C",
"Y. c #D5731A",
"T. c #C25C38",
"R. c #C26D25",
"E. c #CB6D25",
"W. c #C16E2A",
"Q. c #C86827",
"!. c #C47224",
"~. c #CB7225",
"^. c #C5722B",
"/. c #CA752C",
"(. c #C4792D",
"). c #CD792D",
"_. c #C67A24",
"`. c #D1742C",
"'. c #D2792E",
"]. c #D47425",
"[. c #C26E31",
"{. c #C86838",
"}. c #C47532",
"|. c #CB7533",
" X c #C57933",
".X c #CB7A33",
"XX c #C6773B",
"oX c #D57835",
"OX c #D56F27",
"+X c #855B43",
"@X c #955B42",
"#X c #8A534F",
"$X c #8D6446",
"%X c #996845",
"&X c #9B754B",
"*X c #836A56",
"=X c #8C715D",
"-X c #966F51",
";X c #A26542",
":X c #A76C45",
">X c #A77447",
",X c #B77546",
"<X c #A77752",
"1X c #A56E50",
"2X c #83796C",
"3X c #9E7464",
"4X c #B05745",
"5X c #C2504A",
"6X c #C07A46",
"7X c #7D8177",
"8X c #BB8634",
"9X c #D68836",
"0X c #CD9337",
"qX c #D39838",
"wX c #CC8E35",
"eX c #E19E35",
"rX c #DAA729",
"tX c #D5AA30",
"yX c #E5B233",
"uX c #AC855C",
"iX c #B8885A",
"pX c #9B8664",
"aX c #918479",
"sX c #8B8374",
"dX c #B6946A",
"fX c #AF926D",
"gX c #B9A478",
"hX c #CA8645",
"jX c #E0A142",
"kX c #C9A874",
"lX c #D29E76",
"zX c #787C84",
"xX c #8E7B81",
"cX c #7C8184",
"vX c #738289",
"bX c #898B8B",
"nX c #979699",
"mX c #958D8B",
"MX c #A29C9A",
"NX c #B89A85",
"BX c #BBB48E",
"VX c #999EA2",
"CX c #A9A9A7",
"ZX c #C9B18B",
"AX c #D1BFB5",
"SX c #C5C1A6",
/* pixels */
"v.b.b.n.n.V.V.V.V.W.^.C.^.^.^.^.^.W.^.V.V.n.m.n.N.b.8.v.m.8.n.R.m.V. X|.E._.|.(.`.'.'.'.)././.W.m.R.b.b.b.v.n.M.v.v.v.v.v.7.v.v.",
"b.n.v.m.m.m.W.W.H.W.V.^.C.!.^.^.^.^.K.V.W.n.n.b.v.V.N.N.l.l.F.G.1X,X!.0. X/.OXoX'.'././.~./.!.W.R.m.b.b.v.n.v.M.v.v.v.v.v.v.v.v.",
"m.n.m.N.m.W.V.V.W.W.W.^.^.!.C.^.^.^.[.V.V.n.V.b.v.N.M.b.x.P.J.D.1X,XZ.L.D.^.'.oX.X'./.)./.^.^.W.W.n.b.v.v.v.n.n.v.v.7.v.v.v.v.v.",
"V.V.n.V.m.W.W.^.^.^.|.^.^.W.^.C.V.^.V.V.N.n.b.n.B.N.N.m.>X:X;Xu.e.,XL.&X<XXX/._.'.'./.^.^.W.W.m.n.b.b.v.n.v.n.v.v.v.v.v.7.v.v.v.",
"W.V.V.V.^.W.^.^./././.(.^.^.C.V.V.V.V.N.b.b.m.n.v.v.8.B.j.1X%XD.t.%Xk.k.:X6XoX9X.X/./.^.^.W.V.N.V.b.n.n.v.v.v.v.v.v.v.v.v.v.v.v.",
"C.^.^.V.^.^.^.^..X/..X/.^.^.^.V.N.m.m.n.n.v.M.v.5.B.7.S.t.:XP.wXk.u.8X8Xj.A.^.}./.^.^.^.W.V.V.m.N.b.v.n.v.n.v.v.v.v.n.n.v.v.v.v.",
"^.^.W.^.^.^.^.^././././.^.W.V.V.m.m.v.v.v.n.n.M.b.B.z.j.e.hX0XtXrXeXqXZ.j.t.f.,X(.^.^.V.N.n.b.m.n.n.v.n.n.n.v.v.v.v.n.n.n.n.v.v.",
"^.^.^.^.^.^.^./.)./././.!.C.V.N.m.m.b.v.M.n.v.v.b.l.r.l c.qXyXrXyXyX0Xz.L.wXD.%X^.^.V.V.V.N.m.b.n.n.n.n.v.v.v.v.n.n.n.n.B.V.N.n.",
"/.^.^.^.^.^.^.^.^./.^.V.V.V.m.n.v.v.v.v.v.7.v.n.0.v.-Xn wXqXtXrXyXyXtX9XjXP.@X{.^.^.V.m.m.N.m.v.n.n.B.n.v.n.n.N.n.N.m.V.V.V.V.C.",
"^.^.^.^.^.^.^.!.^.^.^.W.V.n.n.n.v.v.v.v.v.v.v.n.b.B.h.f.tXeXwX9X0X8XqXwXL.4.u.K.H.V.V.m.n.n.n.b.n.V.n.n.v.n.n.n.V.N.m.V.W.V.V.^.",
"^.^.W.^.^.^.^.C.V.V.V.n.n.v.v.v.7.v.v.v.v.v.n.n.n.j.8XqXwXwXA.A.(.u.k.j.:X{.:X<XF.B.V.n.v.v.v.b.n.V.m.n.n.v.n.n.n.m.W.W.W.W.^.^.",
"^.^.^.!.C.C.W.V.V.N.V.n.n.v.v.M.v.v.v.v.v.v.n.n.B.L.c.}.hXZ.e.j.D.@X;XuXu.F.y.g.F.G.V.B.v.v.v.b.n.n.m.N.n.N.N.N.W.W.W.R.^.^./.^.",
"^.^.W.W.W.V.V.V.N.m.m.v.n.M.v.v.v.v.n.n.b.n.N.V.H..X>Xs.,Xu.t.iX-X3X>XdXh.j.+X%XB.N.V.9.v.n.N.N.n.n.m.m.m.m.R.W.W.^.^.^./.^.^./.",
"^.W.^.V.V.m.N.n.n.M.n.v.n.M.v.v.b.b.n.v.n.n.V.V.R.G.D.S.J.l %XpXv pXgXgX&Xt.@X;Xn.n.8.7.v.n.V.m.n.n.m.n.N.m.V.W.^./././././././.",
"W.W.V.V.m.m.v.v.M.M.a.l.v.v.v.v.n.n.n.m.m.V.W.W.0.;X:Xx.j.r.$XBX{ x iXkX{ i %Xx.b.v.v.v.v.n.v.n.M.m.m.n.N.R.R.W.^././.|././././.",
"V.C.V.V.b.b.v.v.v.v.v.v.v.v.v.v.n.n.n.m.m.W.W.^.W.:Xt.y.g.&X3XAXsX` dXgXW t u.B.m.m.b.n.n.n.v.7.N.N.m.m.N.V.W.W.R.^./.|.^./.^.^.",
"V.V.N.N.n.n.n.n.a.v.l.v.v.v.v.b.b.m.b.m.W.W.^.^.!.~.F.+Xt.6XuXSXNXdXZXZX+Xi P.9.b.b.b.v.n.m.m.v.m.m.m.m.m.m.R.R.V.W.W.^././.^./.",
"m.N.b.b.n.n.n.b.v.v.v.v.v.v.v.b.n.N.W.m.R.W.^.^. X/..X*X_ e.&XkXBXZXkXpX` @XQ.F.v.v.b.b.N.v.m.m.m.m.N.N.m.R.V.W.W.W.W.^.^.^.(.^.",
"N.b.b.b.v.v.v.v.n.M.v.b.b.v.b.b.V.V.R.W.!.^.^./.^..XR.$X] i j <XZXdXuX[ U z.!.b.b.v.v.b.v.b.n.b.n.V.N.V.m.m.V.V.!.^.!.^.W.!.^.^.",
"b.b.b.v.v.v.v.v.n.v.v.b.b.b.m.m.V.W.V.W.^.^././.'.~..X/.A.W 5 v iXuX$X` W l.v.b.v.b.b.b.v.m.b.b.n.V.N.V.R.W.W.^.^.^.^.^.^.C.^.V.",
"b.v.b.v.v.n.v.v.n.n.n.b.n.m.V.m.V.W.^.^.^./././.~.'. XY.}.} } $X[ pX$X{ e.m.Q.M.b.v.b.b.n.V.b.V.n.n.m.W.W.W./.E./././.^.W.V.V.V.",
"v.n.v.n.v.v.n.n.N.b.n.m.m.V.V.W.^.W.^.^.^./././.}..XK.j.` ( bXNXv f j O.z.b.v.b.b.b.v.b.N.b.N.n.n.m.m.W.W.!././.)./.|.^.W.N.V.n.",
"v.v.n.v.n.n.n.n.n.V.N.V.V.W.W.W.W.^.^./././././..X^.j.q V B K zXNXuXsXK g u.G.v.v.b.n.b.n.V.V.N.m.m.W.W.W.^././.).)./.^.V.n.v.n.",
"v.v.v.v.v.n.n.n.n.V.m.n.V.W.W.W.W.}. X/././././.~.K.E Q ~ ! E ^ mXlXZX/ * u v.7.b.b.b.n.n.n.n.N.V.V.V.^.^././.'.).).).^.V.n.v.v.",
"v.v.v.v.n.m.n.n.N.n.V.R.W.W.^.W./.^./././././.~.V.G.D N ( T y / X.MXCXQ + V x.b.v.v.n.n.n.N.V.V.V.^.^.^.^.^.^./././.^.W.V.n.n.v.",
"v.v.v.v.n.V.V.n.V.C.W.W.R.W./.^.^.^.^.^././././.~.p.w N Y M S ( ~ o.cXH   C v.7.v.v.n.n.n.n.V.V.W.^.^.(./././.|././.^.W.V.N.v.v.",
"v.v.v.M.n.N.V.V.V.W.W.W.W.^.^.^.!.^.^././././.^.E.r.q 1 6 - O 0 E Q K 7 $ I v.v.l.v.v.n.n.m.V.V.^.^.^./.^./.^.^.^.^.W.V.N.n.v.v.",
"v.v.n.v.n.n.n.V.W.!.^./././._.^./.^.^.^.^.^.W.R.B._ C + X = . 0 S 0 = N 2 q D.5.v.v.n.n.n.V.V.W.^.^.^././.(.^.^.W.W.V.V.n.n.v.v.",
"v.v.v.n.n.n.N.W.W.!././././.^.^.W.W.!.W.V.W.W.m.S.g Z 1 F Q o 7 F w 7 / 7 N v 5.v.v.v.n.N.V.V.C.^.|.^././.^.^.^.W.V.m.n.n.n.v.n.",
"7.v.n.n.n.m.V.W././.|.'./././.^.W.W.m.V.V.n.m.n.x.h K = ^ ' 1 . B y H bXQ = y S.v.B.n.n.V.V.V.V.^.^.^.^./.^.^.^.V.V.n.b.n.n.v.v.",
"v.b.n.n.n.V.W.^././.'./././.W.W.V.V.n.n.n.V.n.n.x g K 3 k r.y & * 3  .nXo.= Z b n.n.n.B.n.V.W.^.^.!./.^.^.^.!.^.N.N.b.v.v.v.n.v.",
"v.n.n.n.N.V.W.^.^.)././.^.W.W.V.N.n.n.b.n.n.n.v.I 7 V j x.v.j o X M vX2XzXN * h N.B.V.V.V.^.^.^.W.^.^.^.^.^.V.V.N.n.n.v.v.n.v.n.",
"b.v.b.V.W.W.!.^./././.}.W.W.W.N.n.S.m.9.v.M.B.e.S Q > y m.b.g % O ^ nXcX$.V : T A.V.n.[.H.^.R.^.^.}.W.^.^.C.V.V.V.N.n.v.n.n.v.n.",
"m.N.m.V.W.W.^.^.^.^./.W.W.V.V.m.b.I.b.U.b.v.6.f C d e h z.q.5 . 7 $.$.T cX..& & _ L.^.^.^. X/.^.^.W.W.W.C.^.V.V.V.n.v.n.v.n.v.v.",
"V.V.V.W.W.^.^.^.^.^.W.W.W.N.m.v.b.U.l.z.A.S.e.T V 5 I j.m.x 3 & S VXcX) bXzX6 - Q >X~.~.!.^.|.^.^.C.V.C.W.H.V.V.n.n.n.v.v.v.n.v.",
"V.W.W.W.W.^.}./.^.^.W.V.m.m.m.v.b.z.q.g u x u B / : y v.Q.c = . ~ bXo.N X.$.7 + 9 _ W.~.^.~.K.^.^.^.V.V.V.V.V.B.n.n.n.n.n.n.v.n.",
"W.W.W.^.^.^.^.^.^.V.V.V.N.n.n.n.7.t.i % . q 1 & A > g n.F.g $ 0 +.$.V . = o.( j f { >X(.^.E.}.!.^.C.^.N.V.V.n.n.n.n.n.v.v.v.n.v.",
"E.^./.^./.^.^.^.V.V.V.n.b.v.v.n.v.x w I y 1 5 _ @.( g n [ : # ! bXO.2 - * H 2X=XpX@.=XB.}.}.E.(.^.V.V.V.n.n.v.v.v.v.n.v.n.v.n.n.",
"^./.^././.^.W.W.V.n.n.b.v.v.v.v.e.k g t.w.< w &XpX@.h U T & N %.nX/ . . & 8 O.aX2X| O.g. X^.!.^.C.W.V.N.n.n.n.v.v.n.n.n.v.n.v.n.",
"E.^./.^.^.!.W.W.V.V.n.n.v.v.v.v.l < k v.N.v V D.*XW ` Y O 5 ..VX#.8 o O X 3 ) %.J 2X@.*XK.R. XW.V.V.B.V.n.n.v.v.v.v.n.n.v.v.v.n.",
"/.^.R.^.W.V.V.V.M.b.N.b.N.v.v.m.e.t h 7.m.l.h %X2X) D q 7 K zXxXV $ # $ $ 5 ( O.{ sX7Xh.}.}.R.R.Z.V.v.v.v.v.v.v.v.v.7.v.v.B.v.v.",
"/.^./.^.W.W.V.V.Q.M.M.M.b.8.b.z.U.k < w.J.B.x b U > 5 ! F Q O.q $ . & $ $ 2 Q T ..H | L.I.K.^.N.N.m.v.v.v.v.v.v.v.v.v.v.v.v.v.v.",
"^.^.^.W.W.V.m.m.R.v.G.G.v.8.v.v.l.e.f q.A.e.b H C O $ : 7 F V 2 & $ & $ & 8 G 0 U _ &X/.~.0.I.S.n.n.v.v.l.v.v.7.v.v.v.v.v.v.v.v.",
"/./.^.W.V.m.m.b.V.b.N.V.v.7.b.8.G.5.t.h.g 8 5 * & = = 2 O V T 9 O X $ # $ 3 T / $XXXW.R.V.v.R.M.n.n.v.v.7.v.v.v.v.v.v.v.n.V.V.B.",
"/.^./.R.R.N.b.b.n.b.8.b.b.v.b.v.z.k q L 1 + $ * $ A  . .2 1 2 G 7 2 & . = 1 H ( <X~.E.m.8.L.G.Q.v.v.v.v.v.v.v.v.v.v.n.n.V.V.V.V.",
"^./.!.W.V.N.b.b.8.b.v.v.b.n.j.r.g ; = % 1 1 X > ..nX$.F X X X 8 H F 8 O O X 0 G _ !./.G.R.B.M.a.M.v.l.a.v.v.v.v.v.n.n.V.V.C.^.^.",
"^./.R.W.R.V.b.b.b.V.b.v.M.t.j I   X + . X % K zXMXmX~ . & V 6 X 3 V F 8 O   5 !  .V.U.L.n.7.W.x.l.v.v.v.v.n.v.n.n.n.N.V.V.^.^.^.",
"^.W.W.W.m.n.b.b.v.b.8.v.j.f O @ @ *   * Z  .bX2XaX] > 2 M Z F O + 3 7 V F 7 V ! ( P.9.v.n.G.7.7.M.M.a.l.v.n.v.v.V.n.N.V.^.[.^.^.",
"R.R.V.m.N.V.n.n.n.8.8.l.g t r , # % 7 ^ +.xXnX#X>.,.> B R 0 C 1 X X = F F D / ~ ' x.N.m.x.c.b.a.v.v.7.5.v.M.v.9.m.W.V.W.^.^./.^.",
"m.m.m.N.V.n.n.N.B.V.p.p e a =.s 8 Y &.zXcX] i.-.<.a e 7 G H Z . X & & . 1 F ~ ~ T ` M.R.v.6.v.G.M.a.n.x.M.F.n.V.W.W.^.^./.^.^./.",
"N.m.m.m.N.N.n.N.N.M.k 9 z 2.a 3 Y #.zX+.@X2.;.;.=.t 6 S C ! V 1 = . X # O : 3 ! Q ( u.8.m.9.v.M.B.c.n.8.b.b.m.G.W.W.^.^.^././.W.",
"m.n.b.m.b.n.n.n.7.p.C U j.v A A ' ' #X>.-.;.*.*.=.> B R Z S : & X . & & & X $ 9 ^ ) b e.l.8.5.m.8.v.V.V.R.Q.W.C.^.^.^./.^.^.^./.",
"m.N.M.b.b.v.v.v.7.t.I b n V Z ] i.-.2.1.;.:.;.*.=.> A T 0 V . # X = X # $ 6 V 7 5 q g E v p.D.G.R.V.K.G.B.K.!.~.^.^.^.^./.^./.(.",
"m.n.n.m.v.v.v.v.v.w.h w.y A x y.:.1.T.H.{.d.;.-.s : M I D C 1 X & $ . & X X V K F 5 6 L R z z t.S.B.^.!.E./.!.!._.^./.^.^.^._.^.",
"m.b.b.v.v.v.v.v.c.p.e.w.2 I f.J.5X5X[.Q.{.T.-.,.4 6 Y S q F O o . & % & . . 7 ! F V 6 : w Q W E z r.x.^.}.K.H.K./././.^.^.!.^.^.",
"b.m.m.n.v.v.v.v.7.M.B.r.g +XM.{.5XJ.}.Q.T.1.*.=.4 1 T S T H $ $ & . o . & O : ! w G ^ v h B 7 V Q g z c _ ` %XXX/./.^.^.W.W.W.W.",
"m.n.n.v.v.v.v.v.7.b.e.R f B._.4Xd.G. XT.d.d.s.a : 7 G q ( G = + & % . X & @ = U w G _ x.j.z z D w C F Z g +X:XL.W./.W.V.C.V.W.V.",
"v.v.v.v.v.v.v.v.n.b.q.w x C.~.J.J./.`.J.s.|.A.S + 9 D C ( I O @ + # . + > o = q 7 B h B.R.B.V.e.j h j k y.P.).Y.|.W.^.V.V.V.V.m.",
"v.v.v.7.v.l.v.v.m.N.w.u D.(.!.[./././..XoX}.r.6 * 2 N M K q > . * y I M B T Y B F Q U u.^.}.|.L.}.^.C.G.K..X.X^.W.^.V.Z.V.V.m.m.",
"v.v.v.v.v.v.v.v.N.N.l k [.^.(.).'. XZ.Y.'.F.k + 2 M C V - @ 9 t t e.z.k T +.O.V %.$.R k !./.9.(.Q._.).)./././.}.[.V.C.N.V.m.n.n.",
"v.v.7.v.v.v.v.v.m.m.4.l Q./.}.).|.(._.].`..Xg.I X. .bX( : q f j.v.Q.U.p.z H K I J U D c G.oX^.E.XX}.|./.~./.~.W.!.C.Z.n.n.n.v.v.",
"v.v.l.v.v.v.v.v.8.v.v.S.~.|.|._. X/.'.|.[.].z.S 0 w I 0 u w.5.8.M.n.N.b.6.f.D.x.S.v.S.L.~.~.(./.^.R.E./.).}.}.}.V.V.b.m.n.v.n.v.",
"v.v.n.v.v.v.v.v.b.m.^.H.!.^.`.|.~.(.|.)./.~.V.u.t.h.r.b u.M.b.B.M.v.b.V.V.V.V.n.V.Z./.^.).`.!.E././././.^.^.W.W.V.V.V.v.v.n.v.v.",
"v.v.v.v.v.v.v.v.V.v.Q.W.^.(.OX.X].|.)._.C.^.R.Z.W.B.n.m.v.n.B.v.v.v.b.R.n.M.N.U.[.~.OX!.^.[.^.|./.^.^.^.^.^.R.R.W.V.m.n.n.m.v.b."
};
