/* XPM */
static char *_10398b390d94375b6e7e0d82e197f8d52Mrube4vBeY6YPE[] = {
/* columns rows colors chars-per-pixel */
"70 64 256 2 ",
"   c #030302",
".  c #0B0402",
"X  c #030409",
"o  c #0C0C0B",
"O  c #080908",
"+  c #140401",
"@  c #170B06",
"#  c #16110C",
"$  c #0B0D11",
"%  c #0C1518",
"&  c #131414",
"*  c #14191B",
"=  c #1C1C1B",
"-  c #191616",
";  c #0F0E10",
":  c #240D03",
">  c #271406",
",  c #371B06",
"<  c #261C17",
"1  c #371D19",
"2  c #1B211B",
"3  c #0E2315",
"4  c #24231D",
"5  c #2B241B",
"6  c #35271B",
"7  c #37240A",
"8  c #181D25",
"9  c #121D2B",
"0  c #1C2224",
"q  c #1B232C",
"w  c #18272A",
"e  c #1A2834",
"r  c #142C2F",
"t  c #232423",
"y  c #2B2A25",
"u  c #242A2C",
"i  c #2C2C2B",
"p  c #272526",
"a  c #332D2A",
"s  c #382A26",
"d  c #2B332A",
"f  c #32322D",
"g  c #3B3328",
"h  c #232B34",
"j  c #272B35",
"k  c #2D3333",
"l  c #2B343B",
"z  c #27343A",
"x  c #333433",
"c  c #3B3B3C",
"v  c #373738",
"b  c #342C33",
"n  c #241B26",
"m  c #491807",
"M  c #482A16",
"N  c #57341A",
"B  c #4D2B0E",
"V  c #693A19",
"C  c #6F3209",
"Z  c #521D24",
"A  c #442D26",
"S  c #473729",
"D  c #543C29",
"F  c #443A36",
"G  c #563A31",
"H  c #65392F",
"J  c #39423C",
"K  c #274238",
"L  c #58411D",
"P  c #71421B",
"I  c #46453B",
"U  c #574537",
"Y  c #54452E",
"T  c #67462C",
"R  c #764826",
"E  c #674937",
"W  c #774C37",
"Q  c #755438",
"!  c #6E5336",
"~  c #7E632E",
"^  c #2B3844",
"/  c #333B44",
"(  c #383C48",
")  c #423F42",
"_  c #693740",
"`  c #3B4547",
"'  c #3D4953",
"]  c #344E47",
"[  c #4C4C4C",
"{  c #464847",
"}  c #564C46",
"|  c #57554C",
" . c #464C53",
".. c #495256",
"X. c #585957",
"o. c #50514E",
"O. c #675648",
"+. c #785C46",
"@. c #665C58",
"#. c #704C4B",
"$. c #57625F",
"%. c #66635B",
"&. c #796757",
"*. c #73644C",
"=. c #585E62",
"-. c #4D5A63",
";. c #5C6263",
":. c #5E676E",
">. c #5F6A75",
",. c #676867",
"<. c #736863",
"1. c #76736B",
"2. c #686D74",
"3. c #6B7478",
"4. c #737373",
"5. c #7C7C7C",
"6. c #797877",
"7. c #6E706E",
"8. c #625660",
"9. c #A7293A",
"0. c #8C2426",
"q. c #864718",
"w. c #925019",
"e. c #B5641E",
"r. c #B8651D",
"t. c #A66A1D",
"y. c #894926",
"u. c #875228",
"i. c #965A29",
"p. c #885A38",
"a. c #8B5334",
"s. c #A45E27",
"d. c #B15F2E",
"f. c #9A6639",
"g. c #906933",
"h. c #AC6524",
"j. c #A5632D",
"k. c #AC652B",
"l. c #AC692C",
"z. c #A76929",
"x. c #B56624",
"c. c #B96624",
"v. c #B56825",
"b. c #BA6A26",
"n. c #B3662A",
"m. c #BA662B",
"M. c #B46A2B",
"N. c #BC6C2A",
"B. c #BE712C",
"V. c #B9752B",
"C. c #A56A34",
"Z. c #AC6A33",
"A. c #A36B3B",
"S. c #AB6C3C",
"D. c #A86634",
"F. c #B36B33",
"G. c #BB6D32",
"H. c #B36B38",
"J. c #AB723B",
"K. c #BB7233",
"L. c #B87439",
"P. c #AB7628",
"I. c #9E5C1F",
"U. c #C1661D",
"Y. c #C36D26",
"T. c #C26E2A",
"R. c #C96D2A",
"E. c #C47226",
"W. c #CB7426",
"Q. c #C4722B",
"!. c #CB742B",
"~. c #CB792B",
"^. c #C67A29",
"/. c #D2792D",
"(. c #C47332",
"). c #CB7433",
"_. c #C77836",
"`. c #D67B33",
"'. c #C16F33",
"]. c #8F3545",
"[. c #A82D48",
"{. c #93594E",
"}. c #A8514D",
"|. c #896648",
" X c #976A45",
".X c #9A734A",
"XX c #886A58",
"oX c #89775C",
"OX c #997759",
"+X c #8F6D53",
"@X c #A76D44",
"#X c #A57243",
"$X c #AC7443",
"%X c #A7774A",
"&X c #B57645",
"*X c #B67858",
"=X c #AD7150",
"-X c #897666",
";X c #867C76",
":X c #937068",
">X c #AF766B",
",X c #A85569",
"<X c #C67A48",
"1X c #C04F55",
"2X c #7B827C",
"3X c #BA8B37",
"4X c #C98C37",
"5X c #DAA73C",
"6X c #B28B50",
"7X c #98836A",
"8X c #86837D",
"9X c #938375",
"0X c #B6896A",
"qX c #AF9174",
"wX c #BBA679",
"eX c #C8884A",
"rX c #CA9551",
"tX c #D3A64A",
"yX c #E1B04F",
"uX c #C9966E",
"iX c #C9A778",
"pX c #F0B370",
"aX c #767A82",
"sX c #807F87",
"dX c #D27D80",
"fX c #7D8386",
"gX c #7C8491",
"hX c #858888",
"jX c #968B86",
"kX c #98928A",
"lX c #898D93",
"zX c #8F9595",
"xX c #959595",
"cX c #938890",
"vX c #AC968F",
"bX c #A7A59A",
"nX c #B8A78E",
"mX c #959BA5",
"MX c #A8A8A7",
"NX c #B9B1AB",
"BX c #B5B7B8",
"VX c #AEB2B3",
"CX c #9BA5AA",
"ZX c #CC9886",
"AX c #CEAE91",
"SX c #F1B883",
"DX c #CAB7AB",
"FX c #F0B5B0",
"GX c #E79896",
"HX c #E2C3AD",
"JX c #BCBFC4",
"KX c #BCC7C9",
"LX c #CBCECF",
"PX c #D8DDE1",
"IX c #EEEEEF",
"UX c #E7DBDB",
/* pixels */
"G.N.N.N.N.N.T.'.R.W.W.).).'.T.Q.E.^.Y.T.G.G.F.z.N.v.r.r.b.r.Y.R.U.U.W.Y.E.W.W.W./././././.W.W.W.W.Q.N.N.N.m.m.M.v.n.v.h.v.h.v.v.x.x.h.v.h.v.",
"m.m.b.b.N.N.'.Q.W.W.~.).).'.Q.Q.E.Q.Y.c.m.L.z.w.h.l.x.x.N.M.c.c.c.R.b.Q.W.~.W.~.`.`.4X/./.W.W.W.W.E.Y.T.m.m.m.x.v.v.h.h.e.v.v.v.x.e.h.e.v.h.",
"E.B.B.b.B.E.Q.Q.W.^.~.~.(.(.B.B.Q.b.c.c.n.H.i.C i.S.Z.Z.j.Z.l.L.K.L.B.K.(.~././.4X`.`./.W.W.W.W.B.b.b.N.c.c.x.x.v.h.v.v.v.v.e.v.x.x.x.v.h.v.",
"E.b.E.E.E.E.Q.Q.^.W.~.Q.(.Q.Q.B.N.c.Y.n.Z.@Xf.B a..X@X@Xf.%X$XJ.J.&XeXeX<X_.~.`.`.`.`./.W.W.W.U.b.b.N.b.m.m.x.x.x.x.v.v.e.c.x.x.v.x.v.v.v.n.",
"E.E.E.E.E.E.B.E.E.^.^._.(.Q.N.B.N.N.c.x.l.#Xf., W |.{.|.|. Xg.R .XwXSXpXpX<X).`.`.`.`./.!.T.N.N.b.b.M.b.b.b.c.x.e.x.v.x.v.e.v.e.v.v.v.v.M.x.",
"W.W.W.E.E.E.Q.Q.Q.E.Q.Q.K.T.N.N.N.x.c.x.Z.#X X, M D A A S N L ~ iXSXuXiXSXyXeX<X).`.`.).T.(.B.N.M.M.v.v.v.r.b.b.c.c.x.x.e.c.r.c.b.c.c.c.b.N.",
"R.!.!.!.E.T.Q.Q.B.K.T.G.T.m.N.c.x.x.c.x.l.@X|.> + : + @ @ A |.wX6XiXrXrXyXeX`.`.~.~.!.W.R.T.N.N.M.v.b.e.v.c.b.b.v.x.c.c.b.r.b.b.b.Y.b.b.b.N.",
"T.Q.T.T.Q.Q.K.T.B.B.'.G.m.T.m.c.x.x.c.x.Z.#X|.: + + . + . *.nXwX6XtX6X3XL.4X^._._.).E.R.Y.Y.N.n.b.v.v.v.v.c.c.c.x.c.x.c.Y.b.b.Y.b.Y.Y.Q.Y.Q.",
"T.T.T.).Q.Q.N.N.K.G.G.G.N.c.c.c.m.h.e.x.Z.#X|.> + . . . 3 nXAXg.6X3X3X3XP.4X6X4XK.L.'.T.R.N.m.m.v.v.x.x.x.v.c.c.x.x.n.N.m.c.b.Y.Y.Y.Y.E.!.T.",
"T.T.(.Q.Q.N.B.B.G.G.M.n.x.c.c.c.x.n.x.x.C.@X+.: .     O 9X7X~ ~ 6XtXtX5XyXt.t.6XeXL.K.'.m.T.m.n.n.x.x.x.b.x.v.M.N.M.M.m.N.Y.Y.Y.W.E.W.E.!.E.",
"Q.Q.Q.Q.b.b.N.N.K.L.F.F.n.x.c.e.h.M.x.n.C. XQ : . . O @ bX7X~ ~ tX5X5X5XpX4XeX6X&Xl.n.N.c.b.x.n.x.x.x.v.x.x.M.M.F.F.n.n.N.T.R.E.~.R.E.E.Q.E.",
"Q.Q.T.Q.b.b.b.M.l.s.Z.S.M.h.n.d.l.M.x.M.Z.f.Q : . .   3 7X7X6X6XtX3X5X5X4X4X6X6X%X6XC.v.b.r.x.x.x.n.v.v.v.n.n.l.F.F.H.n.F.T.E.!._.~.!.(.Q.Q.",
"B.B.T.b.b.b.c.n.s.q.f.S.C.C.z.L.L.Z.h.F.S. X! @       # 9X7X0XuX3X3X3X3XI.$X.XOX0XuXH.F.N.c.v.x.x.x.x.x.v.M.F.Z.j.F.H.F.G.(.Q.Q._.Q.Q.^.Q.Q.",
"b.b.N.N.m.m.n.Z.y.C a. Xf.A.f.S.&XL.n.F.S.p.T + . O O - NXqX6XrX3X~ I.s.i.%X XOXqXuX$XF.x.N.M.M.c.m.c.v.M.F.Z.l.i.D.&X&XG.N.Q.!.^.^.^.K.(.Q.",
"N.N.m.T.m.m.d.H.a.m u. X.X%X%Xf.D.&XZ.H.@X{.Y @   O o 5 nXnX=Xg.~ %XA.S.6XuX{.+XqXuX&XM.x.N.n.v.c.c.b.n.M.M.C.j.y.j.$XH.L.N.Q.E.Q.(._.4X_.K.",
"c.N.m.m.m.n.m.@Xy.m D T T T T N u.&X@XS.=X|.S @   O O 5 NXqX+X XL 6X@X{.*XAXXX|.OXiX%XC.n.h.l.l.x.n.N.N.M.M.l.D.q.a.D.J.F.B.B.B.K.K.K.L.L.3X",
"b.c.c.c.e.h.l.#X|.m S G F S S 7 T |.OXOXOX+.s + .     < vXoX|.|.Q 0X0X X{.AXoXO.*.7X%XJ.z.C.i.C.C.J.l.N.n.N.l.C.q.R f.$XF.B.Q.Q.L.&XL.J.J.J.",
"e.c.c.c.e.h.Z.#X.XE &.<.%.| } S S E &.&.XXU <     X   # 9X:X+.+.7XwXZX>X+.DX&.%.*.!  X.XA.f.R OX#XA.C.H.F.G.Z.A.u.R p.=XS.L.K.L.#X%X6Xf.g.@X",
"c.e.e.c.x.x.l.A.OX+X;X;X,.} } F S g S S 6 #   . X   X O F jXqX+.g.iXiXiXAXDXU *.%.g &.|.|.! , |..X#X@X@XJ.S.#Xg.! H ! oXOX#X X X+X+XOX|. X.X",
"x.e.e.c.c.k.Z.%XOX:X-X<.X.v b s a F } } s - O X X X X X   kXbXD L *.iXAXwXnXg 8XbXO g D U E U E +.Q {.p.f..X.XoX! } +.-X-X&.! U +.*.+.OXOXOX",
"n.x.c.n.x.k.D.%XOXoX&.%.} v x t i I [ } f y t & % X X X   a -X;XY L 7XwX6X7Xd <.1.  # s } O.@.} U U E H Q +.|.*.@.1.jXkX9X1.<.%.1.-X-X7X7XOX",
"s.n.n.x.k.H.@X|.*.O.X.X.[ ( v 0 = i c o.[ { { k 8 X X   X p hXDX&.! ~ *.7X&.2X%.J X o n F %.<.[ U U #.U Y U O.O.&.kXMXbXhXfXhXcXlXcXhX&.&.:X",
"h.h.k.k.Z.S. X+.Y I I { { v d 0 & = x [ X.@.X.[ 0 o   o   MXUXMX<.nX9XU G kXDXxX) X ; - g | ,.@.{ | @.@.} U | <.kXMXNXxX2X4.aXhXhXaX6.} E -X",
"h.l.M.n.i.V V D Y I I J v k 2 2 & ; 4 a c } [ F y ;   o X.cX1.a b @.jXvX:X<.[ bXmXX ; p I | 7.X.%.,.7.aX1.@.,.;XbXbXkXhXhX8XaX6.2.2.,.J g S ",
"M.M.M.i.C m N U | I I d 4 4 2 o X O o # = < 5 a 4 ;   ; LX6.) [ o.} @.jXDX6.- 7.hX  ; i ) o.[ o.X.,.2XzXsX,.<.4.8XjX8X1.6.2X&.o. . .[ f - @ ",
"v.M.M.z.q.V N D U O.Y 7 > 5 - #   O   O o @ & = = < ; - IX7.b X.[ ) { 6.MX6.- X.3.% o i v v v ( { $.2XhXhX4.2.4.1.1.%.$.%.%.I f t y y < < 5 ",
"c.e.h.G.$X=XN > D O.T 7 B M , # o $ O O & ; o o = k i k LX=.q ) j ` { X.=. .% =.lX[ o 2 y u k i d o.,.2XhXhX6.aX7.,.X.o.J d 2 # @ < > 7 S *.",
"r.m.m.n.Z.$XB B W |.p.~ W Q S 5 2 * % * 0 0 & X = c ` { VX=.h h * l `  ./ / % =.BXzX3 o - < i t 4 x o.6.zXlXsXaX7.2.,.{ d # o # , D S D Q OX",
"c.e.m.m.n.@XC B  X$X$X&X@X XT A d u * * 0 t & X ; v [ [ zX .h e z r / ( z  .e ' CXLX%   O & 4 = - 4 I 1.hXzXlX6.,.3.2. .0 O . # N |.g.p.p. X",
"m.c.r.m.l.Z.C C &X&X<XeX<X=X! D g a - o & 8 = & 8 c =.hXaX{ j { :.* h / ^ >.' j 2.PX& O O o o @ o 2 I ,.8XxXxX5.,.;.;.` w & + > T #X#Xf.f.A.",
"c.c.e.d.x.P.q.P &X(.).).&X#XT Y g a -   O - 4 t t i %.JX,.( ) 3.CXh q ^ ' gX2.9  .VXu o o       O = J X.5.kXxX6.,.[ { c b < @ > P  XA.f.l.Z.",
"r.m.T.e.M.F.l.K.Q.).).)._.%XT D S p # .   o = y i 4 X.BX/ j 2.JXPX..8 q  .lXaX( x aX .= o       . % 4 { 5.kXcX;XX.v x v ( s @ , V f.J.C.l.z.",
"r.r.b.M.G.M.K.(.E.R.!.(.L.J.R N 6 4 @       O @ & ) 5.kX` * 2.PXIX;.w k 2.hX,.( i ;.LXv   O   X .   & c 6.zXcX<.} ) / / b p < , P .XA.D.z.M.",
"r.b.M.M.G.K.B.Q.W.W.!.K.L.f.P m M D S y 4 .   &   6.VX{ ` j 3.LXBXk %  .lX2.sX%.f 2 NXd         X   X u X.hXhX1.[ b n 8 p i < , V f.C.Z.n.v.",
"Y.c.N.N.V.B.Q.Q.W.R.E.(.L.A.P B V |.~ E 6 d ;.l k zXVXu x { xXPXgXw % ;.MX .5.4.x O 1.1.d           X % J ,.2X2X[ p * $ = p < , P A.S.Z.x.v.",
"Y.Y.N.N.N.B.T.Q.E.R.Q.B.K.J.i.u.g.%X X.XO.8XKXX.fXgX;.k u o.JXIXfXr z aXlXj -.,.I # J KX2X    O   o O $ w o.;.%.F 8 $ X o - : 7 R C.C.l.x.v.",
"N.N.T.Q.(.Q.Q.Q.E.T.Q.M.M.F.Z.C.f.C.Z..X1.1...8 % 0 k J d I BXPXh 9 -.aX..9 u ..1.$.I bX6.o     o & & & u { U I i ; o + + @ : m a.C.l.n.e.v.",
"T.T.T.Q.(.!.Q.Q.T.Q.N.N.N.F.Z.l.M.h.h.C.qX6.{ xX%.y g 6.1.{ 4.lX^ 9 >.gX .9 = ( 7.2XhX2X6.%.  ; # 0 t p d x J d 5 # < F G H T a.D.Z.k.x.e.c.",
"'.T.Q.Q.).Q.!.Q.N.N.v.N.M.M.M.x.v.n.n.f.9X<.:.IXNX@.} jX%.%.o./ r >.mX:.e e 8 i X.2X,.7.2X;.X ; < y a x 4 y y 5 4 < S +.+X X@XD.Z.l.M.v.v.c.",
"(.(.Q.Q.E.!.Q.E.N.N.N.M.n.x.c.v.x.v.M.C.:X<.2.IXIXjX#.9X} | { q z mXgX/ % h 0 u ..:.| 7.2X;.X & < a x v y 4 4 4 5 6 E +X XA.H.F.l.l.M.v.r.e.",
").Q.Q.!.R.!.T.b.b.N.M.M.x.x.c.e.h.M.h.f.DXxX .VXIXNX<.@.I d / '  .aX( 9 ^ 8 0 j { ;.;.7.hX,.  * 0 y v c v i < 5 < S W  XA.z.h.e.v.l.M.v.v.e.",
"(.Q.Q.E.E.T.Y.Y.b.M.v.x.x.r.r.e.v.h.H.f.DXMX:.VXPXBX;X` d w e ^ ' ^ 8 8 n q l l l J u zX3.% * % = t b l c x 4 - @ 1 T  XC.h.r.e.h.n.v.v.h.v.",
"(.Q.E.Q.R.Y.c.c.b.x.n.v.x.x.r.e.e.h.Z.|.MXKXmXmX-...] r 3 r r ^ /  ./ 8 9 l 8 e ] $.VX$.* $ * 0 * 0 j p i i 4 - + 1 E .Xz.P.r.e.x.h.x.v.v.h.",
"!.Q.Q.R.Y.Y.b.c.c.v.b.v.c.x.c.e.v.P.A.ZXbXaX=.-.w % w r K ;...h j b / ^ j h 9 e { $.PXK   o o & & 8 n * = = < @ + Z W @Xh.t.r.e.v.v.n.v.v.v.",
"!.Q.Q.T.b.b.b.c.b.b.x.v.v.x.v.v.h.C.%XDX2Xr 0 % n p e ' fXhX..9 8 8 / ' / q 9 ^ l { BXx   . . & - & - @ # > # @ + m a.@Xz.e.v.v.v.c.M.M.M.M.",
"!.E.Q.T.Q.N.b.c.x.b.c.x.x.v.h.h.z.#XOXS 3 3 d 2 p ) 8.cXMXo.n b ( j 9 j ' ^ ^ e h l zXy   . + . o @ ; > > > > > > M W @Xh.v.M.v.m.c.N.N.G.N.",
"!.Q.Q.T.N.b.N.x.b.c.c.x.x.h.M.S.$X X> s d 3 3 d @.sXdXsX@.s i ( / ( ^ 9 e ( ' ( ` ` CX5 . + + + + @ 1 E #.! ! W H N y.@Xn.x.n.n.c.N.N.B.K.K.",
"!.Q.Q.Q.N.N.m.b.c.b.b.v.x.v.M.H.R B S g 6 d I *.<.,X,X]._ A b ) ( ( e e e ^ ^  . .c 6.8XO.U T T N M Z |. X Xg. XW V q.S.F.h.n.m.m.T.N.Q.(.Q.",
"Q.Q.T.T.T.N.N.b.M.x.N.x.x.v.N.j.W G #.A g #.-XXX{.].[.].H b F ) ) ^ e e j 9 h ^ ^ ' ..NXAXOX#X%Xf.R V @X#XC.C.A.u.C y.@Xd.M.x.T.T.Y.Y.R.E.E.",
"T.Q.Q.N.b.N.N.v.b.c.v.b.x.x.x.i.+XvX| s G XX:XW ].9.[.[.Z s F ) ) ^ e e e w e e e ' { jXqX.XJ.J.i.u.y.D.l.j.z.j.y.V 0.&Xk.N.c.T.Y.Y.R.W.!.~.",
"N.T.N.N.b.M.N.N.v.x.M.x.x.x.x.s.uXnXM G _ #.H W 0.9.9.9.Z s I { ) n 9 r e r w e z z w } <.7XqX%Xf.s.j.H.d.c.M.Z.y.C y.&XP.b.b.E.T.!.~.Q.W.Q.",
"b.b.N.b.N.b.v.x.x.b.c.x.x.N.N.n.%X%XXXZX,X].>XFXGX[.9.0.M v J ] ( b e 9 r r w u z  .k f y Y &.oX0X6X@XD.d.m.M.j.y.C y.&XM.b.b.Y.E.Q.E.^.R.E.",
"b.b.N.x.N.x.N.x.b.v.x.x.x.x.b.N.n.H.*XGX,X1XFXUXGX}.0.0.1 / ] ] ) n n e j 9 e e z ' ] y I Y g U &.&.XXqX6X#Xz.P.w.C w.H.B.b.Q.Q.Q.Q.^.E.Q.E.",
"N.c.b.c.x.b.v.b.x.b.x.x.v.b.c.b.'.'.H.*X1X>XFXFX,X}.].Z p ] ] ] ( 9 e j j j q h z K I U *.&.S } I U ! 7X6X.X6Xg.s.w.s.'.B.B.(.(.(.Q.(.Q.Q.Q.",
"c.c.N.x.x.n.b.v.x.x.x.x.N.N.N.N.m._.}.d.=X>XZXdX{.ZXdX1 d K J ] ` e e 9 q j u 2 d I g g.%X#X6X0XE M M 7 7 ~ rXP.m.m.G.'.E.E.B.B.Q.Q.^.(.Q.Q.",
"c.b.x.c.x.b.x.x.x.v.x.x.c.b.b.N.R.T.).<X&X<X*XeXFXFXxX& w K ] ] ' % n n < < t y y g 7 ~ S.Z.s.S.A. X0X0X6X3X3XP.G.).).(.E.Q.^.V.B.B.(.Q.Q.Q.",
"b.m.x.c.x.x.x.x.x.x.x.v.c.b.B.Y.E.T.E.Q.K._._.<XuX>XO.2 w ` ] z q F H +.a.a.:X:Xo.a E  XZ.d.v.v.M.L.L.L.L.V.V.V.'.).).).R.W.W.E.B.Q.Q.Q.Q.Q.",
"x.c.c.c.x.x.x.x.x.x.x.v.c.b.b.Q.R.R.Q.Q.V.4X^./.).A.R < v [ ( a G +. XS.@X=X>X:X} O.OX@Xn.x.c.v.v.b.B.b.M.V.K.B.(.<X).)./.R.^.E.Q.Q.N.T.T.'.",
"x.x.x.x.x.c.c.x.x.x.x.v.b.N.Q.Q.R.'.(.^.^.^.^.W.!.eXJ.V R +X{.V @X&XF.k.k.D.@XV V OX=XS.n.m.m.m.B.B.B.N.B.^.(.(._._._.).!.!.Q.E.T.N.T.N.T.T.",
"c.x.x.x.x.n.x.x.x.x.c.c.b.N.Q.Q.).)._.~.^.^.W.^./.W.(.L.*X&X@X&X(.m.c.x.x.n.L.C C %XJ.l.M.m.m.m.N.Q.(.(.(.(.Q.).Q.~./.~.!.).!.E.R.T.N.b.N.T.",
"x.x.n.x.x.x.x.x.x.x.x.b.b.B.E.!.R./.R.).!.~.~.~.W.~.~.(._.L.G.G.M.m.N.M.x.n.D.C C D.k.N.U.r.m.B.R.E.E.Q.R.R.R.R./././.!.~.!.Q.Q.B.b.b.b.N.m.",
"n.x.n.c.n.x.x.x.x.x.x.v.b.Q.Q.!.W.~.).!.)./.~.~.~.W.R.T.Q.B.b.T.m.N.n.v.d.N.x.q.C D.x.b.U.Y.Q.E.R.W.).Q.).R.)./.R.!.~.~.(.Q.Q.Q.b.c.b.b.c.c.",
"c.x.x.x.x.x.x.x.x.x.c.N.N.Q.(.!.~.~.~.!./.!.~.~.E.Q.(.).B.N.b.r.N.n.e.x.x.b.n.w.q.H.m.m.Y.U.b.V.b.Q.Q.!./.R.R././.W.W.~.^.B.B.V.b.v.x.N.N.x.",
"x.d.x.m.m.x.x.x.x.x.b.N.B.Q.(.Q.^.^.^.!.!.!.W.~.^.Q.N.B.V.b.b.b.v.v.v.M.e.e.M.k.d.&Xm.m.R.W.r.3XV.(.Q.!.R.R.R.R.W.W.W.W.Y.B.N.M.N.b.b.v.b.x."
};
