/* XPM */
static char *_82dd69a341144a3d6537ce76da646d2GcoM6xQ7lp4C69er[] = {
/* columns rows colors chars-per-pixel */
"64 64 129 2 ",
"   c #B0661F",
".  c #BC641E",
"X  c #9B5D2C",
"o  c #AA5F25",
"O  c #976135",
"+  c #9E6336",
"@  c #9D653B",
"#  c #9F683E",
"$  c #AF6424",
"%  c #A0622F",
"&  c #AC652C",
"*  c #AE682B",
"=  c #B56624",
"-  c #B96624",
";  c #B66825",
":  c #BA6A26",
">  c #B56729",
",  c #B96729",
"<  c #B4692B",
"1  c #BC6C2A",
"2  c #BF712D",
"3  c #A26335",
"4  c #AA6534",
"5  c #AD6B35",
"6  c #A26639",
"7  c #AA673A",
"8  c #A46A3B",
"9  c #AC6D3C",
"0  c #B46D34",
"q  c #BB6E32",
"w  c #B36E3A",
"e  c #B96F39",
"r  c #A77038",
"t  c #AD713D",
"y  c #B67035",
"u  c #BD7234",
"i  c #B3723C",
"p  c #BB743C",
"a  c #BD783E",
"s  c #C26720",
"d  c #C16D26",
"f  c #C26E2A",
"g  c #C96F2B",
"h  c #C37126",
"j  c #CB7526",
"k  c #C4722B",
"l  c #CA752C",
"z  c #C7782D",
"x  c #CB782E",
"c  c #D0752E",
"v  c #C37432",
"b  c #CA7631",
"n  c #C47835",
"m  c #CA7932",
"M  c #C1753A",
"N  c #C47A3B",
"B  c #CA7C3C",
"V  c #9E6640",
"C  c #9C6942",
"Z  c #A06640",
"A  c #A46C42",
"S  c #AB6E41",
"D  c #AE7242",
"F  c #AF7649",
"G  c #B37442",
"H  c #BB7642",
"J  c #B67944",
"K  c #BD7944",
"L  c #B47749",
"P  c #B57A4B",
"I  c #BC7C4A",
"U  c #BE7E52",
"Y  c #C07740",
"T  c #C37C44",
"R  c #CA7D43",
"E  c #C37E4A",
"W  c #C87F49",
"Q  c #CB803D",
"!  c #BD8047",
"~  c #BE804C",
"^  c #BB8154",
"/  c #BD8459",
"(  c #C78247",
")  c #CB8245",
"_  c #C4834D",
"`  c #CB844C",
"'  c #CE884D",
"]  c #D18245",
"[  c #D4864D",
"{  c #D8854F",
"}  c #D4894E",
"|  c #DA894D",
" . c #C58452",
".. c #CB8651",
"X. c #C68950",
"o. c #CD8A54",
"O. c #C98659",
"+. c #C48A5B",
"@. c #CD8C59",
"#. c #D18752",
"$. c #D88751",
"%. c #D48B53",
"&. c #DA8C54",
"*. c #D38E59",
"=. c #D98F59",
"-. c #CF905B",
";. c #D59155",
":. c #DB9156",
">. c #D4915C",
",. c #DC925A",
"<. c #E39156",
"1. c #E89255",
"2. c #E2945A",
"3. c #E89458",
"4. c #E59A5D",
"5. c #E8995E",
"6. c #C88F62",
"7. c #C79163",
"8. c #C6956E",
"9. c #CA966C",
"0. c #DE9560",
"q. c #DC9A66",
"w. c #D2996C",
"e. c #D29C70",
"r. c #E39B63",
"t. c #EA9F66",
"y. c #E3A26F",
"u. c #E6A572",
"i. c #EAA470",
/* pixels */
"= = ; ; : : 1 : h h h f f k k k h k 1 f 1 : > ; : : = = -   - , 1 h k j j j j x n B ' >.q.y.u.u.u.i.i.r.o.p < & < & < $ $   ;   ",
"> = = ; : : : 1 d d f k k k k k k k k 1 : ; : ; = = : = - = - , 2 h l h j x b m Q } >.>.>.@.*.@.*.o.o.*.r.,._ 0 & $ * = ; ; ;   ",
"; > : : : 1 1 f f f k k k k 2 k h k 2 1 : : > ; = : > : = , , : : 2 z k k k B ) ' I G G I  .o.o...*.*.#.` %.=.,.T q $ =   ; ;   ",
"1 1 : : 1 1 d h h k k k k h 2 2 h 1 1 1 : > : = > = ; = , : 1 : k h k B Q ) ) o.J t 9 S t i a R *.=.=.%.#.%.%.#.&.) u > $ $ ; ; ",
"1 1 2 1 h h k h l z b b k k h 1 1 1 : : ; - = = ; = = : 1 2 f v f n m n ] :...i 9 S S G 9 9 w e p W =.r.=.#.[ [ } :.&.n *   ; ; ",
"2 h h 2 k h k k z z m m k k 1 2 1 ; : ; ; - = = = = > 1 1 2 v v M N ] &.%.Y 5 t G 9 9 9 G w e e e e Y W &.=.*.%.} ;.:.;.) y $ * ",
"h h h h h k k l b b m k k h 1 1 : ; - = = ; = = , = : < q 1 v B R 2.t.=.) T N i w G G i w 5 9 w e 0 e Y ` *.*.#.>.%.} >.,.( y * ",
"h 2 h h k k k z z b m k 2 h 1 : : ; = = = = = = = = : 1 1 u R } r.,.%.} %.[ ) T p u 0 w i i i w w w w e E #.*.#._ _ I K ' X.! * ",
"l h h k l k l k l k k 2 1 : - ; = = =   = = = : ; 1 > 1 : N 2.:.#.} $.%.{ } %.} ] R R T R T K K H p w 4 9 9 w 4 4 4 4 4 3 G O.t ",
"h k k k k k f k f f f 1 : :   - = = = = = = = = ; : < u p :.&.=.{ } { } %.{ { } &.| { } %.%.%... .L 7 7 3 7 7 3 7 3 3 3 3 9 +.L ",
"h k k k k h f f f f 1 : ; ; -   = = = =   = - , 1 ; 2 u %.,.' ' | | | | %.%.$.#.} $.| [ { $.&.%. .G 3 3 3 3 3 6 3 3 3 @ + 8 -.P ",
"k h h h f f f f 1 , , =   ; ; - =   = = = - : : 1 1 u } 2.%.o.%.| | | $.&.%.%.#.} } | | $.&.&.#.G 6 @ 3 6 3 6 6 V @ Z @ @ @ 6.^ ",
"k h h k f 1 , : : ; = - - $ ;   = = = ; = > : 1 1 2 u 4.' %.o.;.} | %.%.=.%.&.&.%.$.&.<.=.=.W H 4 + + @ 6 + 6 @ @ @ 8 @ @ @ ^ / ",
"h 2 h 1 f : , , = ; = = ; ; $ ; = ; - ; : : 1 1 u u N ' a ` I ( R R W ` o.%.=.,.<.2.,.&.#.T 7 3 3 + 6 3 + + @ @ @ + @ @ @ @ F 7.",
"2 2 1 1 , , > > = = = $ ; $ ; $ - - : : : 1 1 k 2 u ) p i i i 9 9 9 w G H H R R <.:.| T w 7 @ @ @ 3 6 6 + 6 6 + 6 @ 6 @ @ @ S w.",
"1 1 1 1 , - = = = > ; $ ; ; $ ; ; ; ; : : 1 1 k 2 N N p i 9 i G G D S i w 0 0 M &.R q & 3 3 @ V @ + @ @ @ @ 6 @ 6 + @ @ @ # @ e.",
": : : > ; ; = > = = $ = = = = - > : ; : 1 h h k f M R ~ t J 9 D D t D t S S I 6.E w 3 3 3 @ @ @ + + 3 8 6 6 6 3 @ 8 # @ @ O C 8.",
": : : : ; = > = = - = = = = = = : : 1 1 1 h j l v b B ;.r t G D i t i t w L W U S 3 3 6 6 @ @ @ 3 @ 6 3 3 6 3 @ + @ + # C C C 8.",
"; ; ; = = = = =   = = = = = , - 1 , 1 1 f k l l z b n %.i r D D t 5 w w w E W E 3 % 3 6 3 6 3 3 + @ 3 @ 3 + + + 6 @ + @ C # C 8.",
"; ; ; ; = = = > = = = = = = , : 1 d f h k v k l l z b B ' i r F i i w w w E E 4 4 % 6 @ 3 3 6 3 + @ 3 @ 3 3 3 3 6 6 + + @ O C 8.",
"- - = = = = = = = = - = : : : : d d f g v v z z c x c b } _ D D t G D t L U S + 3 6 Z 6 @ V Z V @ @ @ # @ @ 8 3 + 6 6 3 6 + r 7.",
"= - = = = = ; , = : : : : : d d s d j l k b k l l j l z u ..P 8 8 G D S S 7 Z 7 6 @ @ Z Z V V @ # # C @ @ + + @ 3 3 6 + @ @ F +.",
"= $ = - = = ; : , - : : s d d d j j j g b b z z l j g g : T I G 5 D D 9 3 6 3 6 6 + + Z Z 6 V @ # O C @ @ O @ @ @ + 3 + 8 8 P F ",
"= - = , = : ; = : : : 1 : 1 f h h h l l c l l z h l g f q < a I G G 9 8 + 3 6 3 Z 6 + @ @ @ @ # # # O # @ # r 6 8 9 D t I ! ~ r ",
". - $ = < , , : < < 1 1 1 : f k h h x x g c m l h f f 1 f q 0 w +./ F 8 @ @ @ @ @ @ @ @ @ @ @ C @ 3 6 9 I @.>.@.o.' _ T a w 5 5 ",
"$ - > , = > : , 1 : 1 f v k l f z 2 l l c c l z f 1 f 1 , , > 0 5 i ! ~ X. .I J L L L G P P U ~ o.>.%.` K H a M a a M u < < > > ",
". o , > > 1 q < q 1 q 1 k v v k n u f f g g f f 1 1 , , , , , ,   $ * < < 0 5 < < 4 0 0 0 y y u u n N N v v n v v k 1 1 , = = - ",
"= = = = < 1 : < q M B B M M B B u M v v b b v f 1 , > , , = = - 1 - ;   $ $ = = > = = = = > 1 1 2 k v k b k k d k d f : . - . . ",
"= - ; = < > < M } :.4.5.4.4.5.4.4.4.' u 1 > , , 1 , = = = , = -     = = ; = > > = = > = ; : 1 1 k k l b k z z k d : : : : . : . ",
"= , > > > < B &.%.&.%.} %.&.%.&.} %.;.o.' a q q , - - = = = , = = ; = = = = > > = > = : : 1 f h h k l z h h f d . : . - . : = - ",
"- , = < < q :.4.2.;.%.} %.} %.} } } %.' ! K u < , - . - = = > > = = ; > > > < > = > , , 1 f 1 k k k k k k k 2 2 2 : > = = = = = ",
"= = = : = M r.%.%.%.=.:.:.%.%.%.&.:...G 9 G H < , , = . - = , > = = ; ; : > : > , : : 1 1 f f k k 2 k b u 2 1 2 : ; * = $ < < < ",
"* $ : . f ) 2.o.E H R &.<.<.2.,.%._ i 7 X 9  .w * $ = ; > - > , = : - - d s f d f q f v 1 f h h k h f h 2 h 1 2 : : = , - : = = ",
"; ; 1 1 f [ ,...E e Y ] | | | { y 4 4 6 3 + L  .K y * < > 0 , , , , d : d d k k f f f q v k h h h h f f 2 k 1 1 : > = , = = = - ",
"1 ; 1 1 1 [ ;.~ S 7 u W [ | #.W 5 % 3 3 @ O 6 P U _ o.;.` Y M 0 > > h 1 d d l h v f v v k l k k h d 1 1 k 1 1 : : : = ; - - = : ",
"2 ; d 2 2 } ;.! S w i Y ) | &.` w 8 3 @ V Z V A D 9 5 i H ( O.W u 1 k k g l j l k k f k k v l k h h h 1 1 1 : : , > = = - = = = ",
"2 h h 2 u ;.X.t S t i i Y } =.%.I 3 + 8 @ @ V F A D i i G H E E R M q b z l l j h k l l k k k k k 2 2 1 : : > : : ; ; = ; ; = ; ",
"j z k 2 n ;.! r 9 t t 5 i T ..*.;.i 6 6 @ O 6 6 D t i i W *.W G E R u m b l j c l k k k z l h k k 1 1 : , : = = = = = ; ; = = ; ",
"l b h v N ' i r D t t y y a _ ` %.( i 3 3 7 6 3 4 i ( ` O.=.W 4 p  .N n z z j j l j k l l l k k k 1 1 1 - ; = = = < ; = $ ; $ = ",
"g z h v Q ' 5 i J i i i w w i I ` ;.K 5 4 3 3 & 5 K ..%.$.$.T 4 4 #.T N z j x j j l l f l f k k 1 1 1 > - = = = = = ; ; ; * ; ; ",
"l k k u } a H W  ...E G w w i 5 a } #.H 4 % 4 4 T _ =.#.=.=.e 4 4 H ..N n x x j j j k k h k k 1 1 : - = > = > = = * = = = = = = ",
"f z v y =.E E $.$.&.#.W p e i y i N ..o.H % 4 T *.%.=.&.0.,.e % 3 9  .N n m z j x j l k z h 1 1 : , = = = > = = = = = = = = ; ; ",
"l n v N *.W #.=.$.$.$.#.E H e w 0 w E o.E 7 S W o. .....o.W 7 % 6 3 I T n z l z l l h k 2 : 2 ; , > = = > = = > = = = = = ; - : ",
"k k M %.E O.=.$.$.$.$.%.%.#.R K u 0 G ..E S Z I I G i i L G 7 @ 6 6 5 } n z k l l k h h 1 2 ; ; = = $ = $ = = > = = = ; : ; : : ",
"k v T o.w E *.=.:.&.&.{ $.&.=.$.Y w S E U 6 3 7 D 9 5 9 9 S 8 6 @ @ % ;.a z z l k k f 1 1 : ; ; = ; $   = = = = = = = : < 1 1 h ",
"z n ' K S G E %.:.3.3.&.&.=.1.<.W H G E L + + S w t i t G G 9 @ @ 3 % ;.a 2 k h d f f 1 1 > ; $ = $ $ $ = = = = = = : 1 1 2 2 h ",
"b v o.D D r w T [ | 2.3.3.3.1.1.<.H w E G 3 3 7 i i i i i D D 8 @ # i _ u 2 z 1 f f f : < = $   $ ; ;   = = = = , , : 1 1 k h k ",
"v 1 ;.J D D 9 w y M W $.&.,.1.3.&.Y e Y S 7 3 7 9 i t i 5 5 G D @ r _ K u 2 2 : f 1 1 , ; = $ ; ; $ $ = = = = = - , 1 1 k k h z ",
", q Y ..I 9 9 D t i i p a R | 2.=.e w Y w 3 3 8 t t t D t t t 5 a ( ( p < u k 1 1 : : : ; ; * = ; = = = = = = - : d f k k k l h ",
"q 0 0 H _ I G 9 S t t i 0 w ) :.W G G G 9 3 3 8 9 D D r 5 i i ( ' Q u 2 2 1 > ; , : = = ; $ = = $ = > > = = - - d d k k l k j l ",
"- f , > e ( _ G D D t D G 5 H o.W L G G 8 3 6 6 G S D G G L ..%.N q ; < 2 > ; 1 = = = =   = = ; = > = > : : : : h k k k l k k k ",
"s s - , > 0 a  .K J 8 9 G t G O.W H S S 7 6 3 3 9 9 t K *.%.Y e < < q q 1 ; ; - = : =   = = = = , > : , : 1 1 f k k k k k l k l ",
"s . . s : $ < e K _ X.~ J 8 r ~  .D S 9 3 + 3 3 9 L o.%.R u u q 2 2 < = = < : * - ; ;   = = - , : : 1 v f f f f k k k l l k l k ",
". s :   = > & o < 5 5 H _ o._ ( E J G G 9 4 5 i ..[ T u N u 1 k < ; = < = = : : - ; ; = , , : : 1 f f k f f f l l k k l k l k l ",
"- = = - : = > < * > < < < y N _ ;.' ;.o.[ ' } %.) a u v q f f : : = = ; ;     $ ; ; ; - , , , f f f l f b f l z l k k k k k k f ",
"< = < * = = = > = $ > 1 1 1 k v N n n n n Q N m k n h k k d d : , : = = ; ; ; ; $ - ; ; , f f f f f k l l l l b k l k f f f f f ",
"* * & * > = = - = - : : d f k l k z z m m m m m b b k f d d s : , - - = = = = ; ; ; : 1 f f f f f l l x l m m l l h h 1 f 1 f 1 ",
"* * = = & = = - - - - 1 d j l k l l z l m m x m k b f g d d : : : , - = = ; = ; ; : 1 1 k f f g l l z l c x x l k h h h 1 d f : ",
"= = = = = - =   - - - s f k l l l c l c c x x l l k g 1 d : 1 , = , = = ; ; ; ; , 1 1 v f l k k l l l l x m x l k h 1 1 : : , : ",
"  =   = = = - = - - , : f k k l l c b c c x c b b f f f 1 1 , , , ; : = ; ; > : , f f f k k l l j g l l x l z z h h 1 : : ; : = ",
"  . =   = = = = ; : : 2 k b z z l l c l l l z z g f , 1 < < , > > > > > : : : 1 , f g g k h l k g l l g z l l k h : : : : : = ; ",
"-   = - = = = = ; : : 1 k k l l z z z l l l l h f 1 1 , : = , > = > , > , , , f v f v f l l h k l g f l h z h k 2 : : : ; = = = ",
"  ; = = = $ = = > : : f k j l x z z z z l k h h h : 1 , , ; > = > > , , , , , g g g g l k d k l l g l k h z h h 2 . ; ; ; ; ; = ",
";   = = > * > > > : 1 h j j c c z z z z k h h h . : : = ; = = = = > , , , , f f g f l l l l j h l j k l j j : h 2 : - - ; ; = ; "
};
