/* XPM */
static char *_a4489a524a246099fa67537b6783ef0L0i8j4zjd9Hdp1Ot[] = {
/* columns rows colors chars-per-pixel */
"64 64 256 2 ",
"   c #030301",
".  c #0B0401",
"X  c #0A0B06",
"o  c #150904",
"O  c #1B1307",
"+  c #1A1914",
"@  c #0F130C",
"#  c #240C00",
"$  c #2C1A02",
"%  c #271706",
"&  c #341D01",
"*  c #391C00",
"=  c #311601",
"-  c #251E13",
";  c #351E15",
":  c #2A2107",
">  c #372306",
",  c #282517",
"<  c #372818",
"1  c #37311C",
"2  c #132C33",
"3  c #382A26",
"4  c #2A3429",
"5  c #353427",
"6  c #373834",
"7  c #272823",
"8  c #1E231C",
"9  c #441800",
"0  c #4F1E10",
"q  c #472806",
"w  c #532900",
"e  c #452C12",
"r  c #463517",
"t  c #583816",
"y  c #582E11",
"u  c #623C17",
"i  c #743702",
"p  c #463A28",
"a  c #583D26",
"s  c #483D37",
"d  c #593E33",
"f  c #613D23",
"g  c #2A4139",
"h  c #5D4112",
"j  c #73461A",
"k  c #564428",
"l  c #4A4637",
"z  c #584935",
"x  c #58543B",
"c  c #4B452F",
"v  c #684A27",
"b  c #795429",
"n  c #6A5639",
"m  c #785837",
"M  c #6F4C2E",
"N  c #7B6439",
"B  c #394A44",
"V  c #356559",
"C  c #484C49",
"Z  c #574A42",
"A  c #495249",
"S  c #575748",
"D  c #5A5A56",
"F  c #5E4F52",
"G  c #685B48",
"H  c #705A49",
"J  c #5C6354",
"K  c #526555",
"L  c #796448",
"P  c #696657",
"I  c #766856",
"U  c #727050",
"Y  c #4C736B",
"T  c #787767",
"R  c #6D746B",
"E  c #8B3B0E",
"W  c #823E2B",
"Q  c #8E4D13",
"!  c #A44B02",
"~  c #AB5811",
"^  c #AB6219",
"/  c #B5651D",
"(  c #BB641D",
")  c #B3691D",
"_  c #BB6A1D",
"`  c #AB6108",
"'  c #865729",
"]  c #975B2A",
"[  c #855B36",
"{  c #8C532B",
"}  c #AA5C2A",
"|  c #9B652B",
" . c #87643A",
".. c #996938",
"X. c #957334",
"o. c #AD6524",
"O. c #AE6924",
"+. c #AC652C",
"@. c #AD6A2C",
"#. c #A46429",
"$. c #B56624",
"%. c #BA6624",
"&. c #B56925",
"*. c #BB6A25",
"=. c #B5662A",
"-. c #B96629",
";. c #B46A2B",
":. c #BC6B2A",
">. c #BD722C",
",. c #BB7427",
"<. c #AB6632",
"1. c #A46B34",
"2. c #AB6B34",
"3. c #AB6C3B",
"4. c #A36A38",
"5. c #B46C33",
"6. c #BB6C33",
"7. c #B56937",
"8. c #AC723B",
"9. c #A7753B",
"0. c #B47234",
"q. c #BB7333",
"w. c #B4733B",
"e. c #BB743B",
"r. c #BA7B38",
"t. c #A9762C",
"y. c #C35C09",
"u. c #CC7017",
"i. c #C26D25",
"p. c #C26E2B",
"a. c #C76B29",
"s. c #C47126",
"d. c #CB7424",
"f. c #C5722B",
"g. c #CA742C",
"h. c #CC792D",
"j. c #C6792C",
"k. c #D2792C",
"l. c #D17627",
"z. c #C26E32",
"x. c #CA6F30",
"c. c #C47332",
"v. c #CB7532",
"b. c #C47A34",
"n. c #CA7A32",
"m. c #C4753B",
"M. c #C87A3B",
"N. c #D37A34",
"B. c #D37735",
"V. c #865E43",
"C. c #886847",
"Z. c #966C46",
"A. c #9B734C",
"S. c #9A7547",
"D. c #866E55",
"F. c #87745A",
"G. c #947954",
"H. c #9C7C5C",
"J. c #987856",
"K. c #867448",
"L. c #A66D43",
"P. c #A57344",
"I. c #AC7443",
"U. c #AD7B4A",
"Y. c #A7774A",
"T. c #B47544",
"R. c #B27C4B",
"E. c #BC7C4C",
"W. c #B97A44",
"Q. c #A47C53",
"!. c #AB7D54",
"~. c #A47D5B",
"^. c #A57756",
"/. c #B67B54",
"(. c #8C7A64",
"). c #8B7D6A",
"_. c #847866",
"`. c #967D64",
"'. c #857A71",
"]. c #917E70",
"[. c #A27D60",
"{. c #C57A43",
"}. c #C87E51",
"|. c #7A8378",
" X c #7B815B",
".X c #BA853A",
"XX c #AD8C33",
"oX c #BAA329",
"OX c #BA9F1D",
"+X c #C6883A",
"@X c #C89738",
"#X c #D18A31",
"$X c #EB932C",
"%X c #CFA532",
"&X c #E8BC32",
"*X c #E6A716",
"=X c #FDD32A",
"-X c #FFE927",
";X c #8D8259",
":X c #968659",
">X c #918047",
",X c #A9854B",
"<X c #BB834B",
"1X c #B78548",
"2X c #A2825B",
"3X c #AB845B",
"4X c #A98656",
"5X c #B28352",
"6X c #B3845A",
"7X c #B98958",
"8X c #B79458",
"9X c #AA924D",
"0X c #B9A545",
"qX c #88846A",
"wX c #9D8364",
"eX c #9C856C",
"rX c #968668",
"tX c #8E8472",
"yX c #878877",
"uX c #938573",
"iX c #9A8A75",
"pX c #989178",
"aX c #8A9374",
"sX c #A48464",
"dX c #AC8A65",
"fX c #AB8C6B",
"gX c #A58866",
"hX c #B58B63",
"jX c #B6936A",
"kX c #A68C73",
"lX c #A89479",
"zX c #B0946E",
"xX c #ADA573",
"cX c #C4834C",
"vX c #C68546",
"bX c #C28856",
"nX c #C59356",
"mX c #CE8C48",
"MX c #ECB64F",
"NX c #CF9A64",
"BX c #D1A86C",
"VX c #F0B669",
"CX c #E9C648",
"ZX c #FBE44D",
"AX c #76948D",
"SX c #8A9487",
"DX c #989885",
"FX c #8B8D81",
"GX c #A89C87",
"HX c #9EAD95",
"JX c #ACAF93",
"KX c #AABAA0",
"LX c #F4CC8B",
"PX c #D8C7A2",
"IX c #ECD9C8",
"UX c #D5CFC3",
/* pixels */
"$.$.$.*.%.%.i.i.i.i.p.a.s.p.f.f.p.f.i.i.*.*.-.-.*.%.-.-.-.$.$.$.,.s.f.f.v.v.v.x.l.k.k.k.v.B.x.z.z.:.%.*.=.^ -.$.) ) ) $.=.=.=.=.",
"&.$.$.$.*.*.i.i.i.p.p.f.f.f.f.f.f.p.s.*.i.*.%.*.%.*.-.-.=.=.$.&.*.s.s.d.v.v.v.B.l.l.k.l.v.i.x.x.-.-._ $.=.6.=.^ ) ) &.$.$.=.=.=.",
"-.$.*.*.*.p.:.i.p.i.f.s.f.f.f.f.f.z.p.*.%.%.$.$.*.%.-.-.-.=.*.*.,.s.s.d.f.f.h.h.h.h.k.d.s.+Xp.z.:.:.*./ =.-.=.$./ $.$.=.$.$.=.$.",
":.:.:.:.:.:.f.:.a.p.f.f.f.s.f.p.p.z.p.:.*.*.&.&.$.&.%.-.-.*.:.p.s.,.s.h.j.h.#XN.N.v.d.x.j.b.:.:.:.*._ $.=.=.$.-.$.&.$.$./ / $.$.",
"z.-.:.p.p.p.f.f.f.j.c.j.f.f.,.:.6.q.:.:.=.&.@.=.=.=.-.-.;.:.p.p.c.z.B.B.k.#XB.k.v.v.m.m.+XQ r.q.*.$.=.$.-.=.-.$.%.$.$.$.) ) $.$.",
"p.p.f.p.p.f.>.j.b.n.n.j.f.,.f.:.;.;.=.%.$.;.O.+.=.-.-.-.>.>.f.f.v.x.B.B.N.N.{.}.B.c.{.7.nX0.+XO.$.;.6.7.-.} ;.$.=.$.$./ ) / &.$.",
"p.p.s.s.f.,.f.f.n.b.n.c.z.p.:.:.*.$.( %.$.;.@.=.%.-.-.p.:.,.d.d.d.g.B.B.N.}.mX}.q.M.E.bXbX7.r.r.@.;.<.{.=.^ :.&.$.$./ ) *.=.&.$.",
"d.s.s.s.s.f.f.j.j.f.v.c.p.p.p.*.*.%.( ( $.$.=.=.%.%.-.-.>.f.d.d.g.g.l.B.mXE.Z.{ vXb.| R.}.E m.b.W.1.{ E.5.&.$.$.-.%._ ) *.-.:.;.",
"s.s.f.f.j.s.j.f.f.f.f.f.*.-.i.-.*.( ( i.$.^ +.;.$.*.&.:.q.:.i.g.g.g.h.+XQ }.V.{ E.^ .X@X+X~ ! ! t.U.Q /.0.O.o.=.=.:.*.i.*.6.p.6.",
"f.f.p.f.j.n.n.n.f.,.*.*.i.( %.%.=.-.%./ / =.;.;.&.:.&.:.z.c.f.f.f.c.n.M.Q /.V.b <X+XMX%X@XMX*X#Xr.Q.{ R.9.@.+.:.=.:.*.*.i.p.z.p.",
"c.c.c.p.:.f.f.f.*.,.*.$.:./ %.^ ;.=.&.) %.$.%.%.*.*.:.>.6.c.>.>.q..Xr.cXQ 7X| >X1X%XCX%XOXZX=X=XmX9Xb R.<X3.7.<.7.-.p.a.i.f.p.z.",
":.c.c.q.p.c.c.c.*.*.*.&.;.$.$.$.@.o.o.&.%.$.%.*.*.*.p.6.p.f.j.b.vX{.{.q.@.8XXX9X@X%X=XOXOXZX-X-XoX9XX.5XT.] e.e.6.p.z.z.g.p.f.f.",
"c.6.f.6.:.z.c.b.;.&.;.@.o.@.#.t.o.@.@.;.o.$.p.:.>.z.f.p.a.h.d.c.} Q ! y.mX@XXX>X@XCXCXOXOXCX-X*XXX8XnX7XT.w.7.=.z.z.z.x.g.s.g.s.",
"p.c.f.:.*.-.;.:.;.} #.2.1.1.1.1.0.@.1...3.5.+.6.T.3.W.c.d.h.s.f.{.z.( $XCX%XXX9X0XmXCX%X#X%X=X&Xt.8X1XnXT.3.7.:.f.d.v.v.g.f.j.f.",
"i.i.:.p.:.:.=.=.5.<.3.3.4.| U.,X<X3.A.C.3XQ.b Q.C.f { T.c.g.v.b.{.}.x.( mX%XoX0XW.~ +X@X.X` *X$X.X5X| .XW.5.z.:.f.d.h.h.v.f.f.j.",
"s.*.*.*.*.$.=.=.+.<.P.Z.b y J.jX6X3XfXC.gXsXa sXG . = Z.1Xb.M.M.B.B.y.~ #XmXXX0X<XQ t.@X,.! u.u.2.8X..nXW.5.:.i.i.d.g.g.g.c.j.f.",
"*.*.*.$.$.&.=.=.o.3.M O $ k :XaX;X:X9XzXdXdXG.J.L - . = !.<X1Xr.{.y.y.u.#X.XXX9X/.T.T.{.N.E y.y.| 8X8XnXvX;.*.s.i.d.s.f.f.v.f.g.",
":.-.*.*.&.&.+.=.$.2.m : 1 N  X|.|.U b ,XjXjXS.H.qXc O % fXY.' U.} l.$Xk.#X.XXXY.bX/.3.E.7.E ! a.1X8X5XcX0.&.:.*.i.i.s.f.f.c.c.v.",
"-.&.*.$.=.=.=.=.$.#. .k N >X XHXHX Xj h Q.6XY.!.wXG 5 - ].[.m ^./.} %.B.~ W.[ V.R...{ Y.E.Q #XMXnX,X| <X5.:.p.i.s.s.f.i.f.f.p.f.",
"=.$./ %.=.=.=.+.$.+.[ q h 9X XKXKXaXv q  .7X!.4XG.P Z Z kXJ.m ^.^.M i Q E /.m [ U.R.{ Y.bXBXVXVX1X7XP.cX5.c.p.p.f.f.f.,.f.p.p.i.",
"o.$.( ( %.-.+.=.%.5.L.b w XX XHXJXaXt S.2XfX[ ~.eXH Z H gXG. .`.d d 0 0 W /.D. .U.^.C.~.7XVXLX1X..7Xw.cX{.B.x.g.v.g.c.j.*.*.i.*.",
"o.o.%.%.%.-.=.=.%.$.5.8.j '  XxXJX:XG.3XQ.fXZ.fX(.z Z P wX3XhXJ.3 3 ; 0 0 [.C.H 5X7XzXdX7XBXLX1XU.3.] e.{.M.v.v.v.v.v.f.,.*.%.*.",
"O.;.%.%.%.%.<.5.*.*.;.0.XXt.zX>XK.dX6X5X4X3Xt `.G 7 s G gX[.7XA.1 @ 3 d y ].S Z :XBXLXzX9XLXLX1X1Xw.0.5.:.c.v.v.v.v.v.f.*.$.( *.",
"@.o.%.%.%.%.-.=.*./ ,.0.0.8.X.X.[ 8XnXI.,X6X!.fXZ X + , ].dXY.J.5   3 H `.uXC S 9XBXLX9X8XLXNXQ 0.5.q.6.c.g.g.g.k.n.n.f.:._ $.$.",
";.+.$.%.( %.*.%._ *.:.6.6.6.0.0.0.mXM.0.nX5Xb kXuX3 . O tXsX~.G.1 . k >XwXiXl x 4XBXjX9X8X8X' 9.0.>.>.f.f.g.g.g.g.v.c.p.:.*.$.$.",
"=.$.$.( %.*.*.*._ *.6.6.z.a.c.f.n.f.j.,..X1X9 sXrXS 6 s iXI G.G.1 o L fX8X:X_.F.2XVXBX9X9X' | 3.0.f.f.s.g.g.d.h.g.g.f.p.:.$.$.$.",
"=.=.$.$.%.*._ _ i.:.c.m.x.l.l.a.v.i.g.g.c.0.}./.F 3 F R pXL m wX< < G gX9X5XfXwX4XS.jX3X,X{ 0.w.>.f.s.j.d.j.d.f.f.f.p.:.:.-.$.$.",
"$.$.=.$.*._ _ i.i.p.m.z.a.x.l.l.f.b.s.*.>.>.6.T.V.0 # ; qXpXiX(.p I O e S.9X:XwX>Xq q A.P.2.;.:.p.s.d.j.d.j.s.f.f.p.:.:.=.;.&.$.",
"%.$.;.&.&.$._ i.p.v.v.v.g.g.d.x.:.z.$.f.,.q.7.7.L.^.m $ tXT G iXI 3 . o e G.I T F.r K.S.9.6.-.x.p.g.f.d.f.f.s.s.*.:.*.:.%.$.&.&.",
"%.=.&.&.&.*.*.p.v.v.k.h.g.f.p.f.z.6.:.$.*.:.z.7.2.1...* tXS 6 FXP Z F s % (.P l qX$ > 2X3X#.{.6.f.f.g.f.j.j.,.:.i.*.-.%.&.$.&.$.",
"$.%.$.$.&.;.>.z.x.v.l.h.g.j.,.,.,./ *.:.:.%.-.=.2.P.[ : qXA 5 T 8 6 D A p tXC C qX$ r eXH.t L./.c.g.c.g.f.f.f.,.:.%.$.$.&.$.$.$.",
"<.+.;.;.&.*.p.c.c.g.l.d.f.,.:.*._ / *.-.=.6.z.7.L.^.Z.: qXS 7 |.3 - 5 c P '.A C tX$ G (.uXa e Z.T.e.q.q.f.,.:.:.:.$.%.%.%.*.&.$.",
"A.[ 1.;.*.*.s.s.c.m.b.>.>.*.*.i.*.$.+.2.3.E.!.~.A.e L & _.S 4 yX].].kX`.d T |.|.FX: O _.tX- 6 3 V.Y.W.0.,.,.,.:.;.;._ ( i.%.-.} ",
"`.h 1.5.@.6.j.c.e.cX<XT.w.5.,.o.$.#.P.Z.!.Q.w H.L `.L $ pXT C FXGXGXIXJXyXR B C |.J D DXqXO + @ 3 eX..1X>.f.:.6.;.;.( ( ( -.=.=.",
"6X/.w.3.9 !.5X1X5XY.dXsX^.6X3.2.2.I.J.a J.J.q A.L [.D.$ _.HXyXSXJXUXIXUXDX|.2 2 AXA C FXpXp o   4 |.L ~.w.6.m.-.;.&.) ) / $.=.O.",
"T.<XcXW.u `.J.M ~.hXlXL M `.Y./.5X7X(.p eXwXv J.[ A.C.# tXDXGXDX'.'.'.T yXR 2 2 |.4 @ S FXI , , g R G fX/.L.3.=.;.;.O.) &.&.&.&.",
"0.cXcX7XhXhXM H wXy `.gX(.e ^.R.' J.< % T wXH.4Xb Z.C.$ eXpXGXpX< - % % , P V 6 DXaXp J |.7 S P |.Y , uXI > # w 4.@.@.O.) O.&.O.",
"m.M.W.<XhXfXiXkXgXk sXwX> # ^.Z.v wXT , I rXv J.m J.[ * wXD.n pXH _.G.D., |.SX|.SX|.aXaXyX- - 1 K aXR DXaXc : Z.4.+.@.O.$./ &.@.",
"f.c.,.cXjXGXuX'.kXH T P 4 z U.3.j (.G - T _.; ].G n r `.kXL a kX_.Z b A.: yXR Y V V Y R lXF.& $ l  XG pXqXk K.P.<.;.=.&.%.( $.&.",
"g.f.g.vXNXzXH I uXp 5 3 6 s /.<.v (.O o T (.: ]._.x G ].lXC.z iX(.F t Y.> yXSXAXAXY Y aXgX,Xh h U rXr ;XrXK.P.t.$.%.;.&.%.( %.%.",
"g.g.p.q.{.hXdXgXgXr - 7 7 , ~.Z.n ).< 3 F.H.h gXkXkXL e kXD.z iX_.d y Q.* tXD B SXaXgX4X9.h Q XX>X9XN 2XfX~.<.=.%./ O.;.$.( $.$.",
"s.i.v.v.@.<X!.~.gXF.).'.R z H.!.m G.& # C.dX~.3X[.v ; # kXD.M kX(.; b Y.> uXA 4 T r >X1X9.Q ) ) XX8X>X8XA...<.-.%.$.O.O.%.( $.&.",
"h.g.p.e.3...t C.4XZ.D.H 3 p A.I.T.T.P.P.!.3X3XdX[ e H * fXjXdXkX_.q P.U.* qXS 4 R : K.1XR.| | .X8.9...6XJ.b 4.<.$.O.O.O.$.$.&.@.",
"p.f.c.q.e.R.[ 6X/.Y.^.G.D.V.L.7.+.3.I.P.hX~.u [.H D.F.* [.bXdXfXs ; A.S.> tXJ 4  X, :X4X2.w.vX@.@.@.1XP.4.T.8.+.o.O.O.&.*.,.;.;.",
"M.z.g._ O.w.8.2.+.0.2.1.2.2.#.<.5.#.2.U.dXG.> iXG r D.* 3X!.C.rX< F % c $ tXK g |., G :X0.*.;.&.=.=.<.<.@.@.&.$./ / ) ;.:.:.,.:.",
"c.v.d.i.c.O.+.;.%.) $.&./ *.=.=.=.5.| t D.(.$ iXn s _.e fXhXzXeX- X .   O ).J l tX> : G.;._ / $.$.=.=.=.o.$.^ *.( ) *.*.:.:.p.f.",
"g.g.d.a.*.;.6.:.*.) =.:.$.) / / $.;...q U |.< iXL F.1 L fX2XN rX-   @ . % ).P z ~./.Y...t.&.&.&.^ &.} %.$./ :.$.$.*.*.,.:.z.f.x.",
"s.a.i.s.*.:.$.$._ / $.=.$.%.*._ ( 0.S.r P FX_.kXm F.$ t dXS.v ;X,     o # (.I z U.T./.8.$.$.&.O.;.^ %.=.$.%.=.$.-.*.*.*.c.c.z.x.",
"p.p.*.*.*.;.*.$.$.&.$.=.$.$.%.*.*.q.Z.t G DXxXlXv F.q [ 3XZ.v rX8 X . . $ qXJ c ^.R.I.<.%.( @.@.&.$.$.=.$.$.$.$.:.i.s.s.f.f.f.g.",
":.*.-.:.:.*.=.*.%.$.&.%.*.$.%.*.i.q.Y.r x pXpXrXk ).C.3X4XZ.k ).,   . o # qXK 5 G. .Y.<.:./ o.o.=.=.=.$.$.$.%.*.*.i.f.f.f.g.g.f.",
"%.:.*.*.*.=.:.&.&.$.&.$.&.*.*.*.f.0.S.e U T 5 aX4 l fX3X~.C.z '.+   @ . o (.A 1 H.* * Z.2.*.*.) $.$.=.=.*.&.:.*.f.p.f.s.g.g.f.g.",
"*.%.:.%.:.&.$.%.$.$.%.;.&.*.:.:.*.b.8.u I _., yXA Z H.A.sXL k ).- X   . % _.K 1 ^.Z.* V.#.$.( / %.$.:.%.:.*.:.:.f.f.f.g.f.f.g.f.",
"$.:.*.$.;.$.$.$.$.$.$.*.-.:.:.*.j.*.q.<XhXH.< uXS x F.> gXN a ).+   X   # _.S 1 4.<.P.R.;.$./ i.*.:.:.p.:.p.f.f.f.f.f.g.f.g.p.g.",
"$.%.&.*.%.$.$.$.$.$.$.$.:.:.p.f.g.j.c.{.{.R.9 sX:XgX;X> :X4XA.`.% , s d a (.J k 4.=.w.2.o.) i.*.*.p.z.p.p.f.f.f.f.g.f.f.g.f.f.g.",
"&.&.:.$.$.$.$.$.$.$.$.*.:.>.f.f.f.*.n.n.c.{.Q R.vXR.~.* 4X7X/.^.M A.4.4.1.X.F.D.4.-.+.<.;.,.;.5.p.p.f.f.g.f.f.g.g.f.f.f.p.f.p.f.",
"$.%.$.$.&.$.$.$.$.$.%.%.:.:.f.f.g.n.s.s.h.n.r.b.f.+X4.w !.Y.] U.L.3.-.-.&.| m v <.6.=.:.;.&.q.>.:.f.g.g.g.g.v.g.g.g.f.f.p.p.p.p.",
"$.$.$.$.$.o.$.$.$.$.*.:.:.p.f.f.g.g.k.x.k.N.n.n.d.d.m.W.R. .j ..7.=.$./ ) ;.I.I.;.&.;.:.:.f.i.i.f.g.g.v.h.v.h.v.f.s.p.*.f.i.p.:.",
"$.$.$.$.$.$.$.$.$.$.&.*.i.f.c.g.v.v.x.k.k.k.n.h.h.s.g.6.T.,X9.8.7.=.) ) / &.6.6.;.*.,.:.p.p.s.d.g.s.g.g.h.g.n.g.s.s.f.i.*.:.*.:.",
"$.$.$.o.$.$.$.$.$.*.*.*.f.f.g.f.c.b.h.d.l.h.j.b.h.i.f.:.5.w.w.+.<.=.&.) $.$.-.%._ _ i.p.z.c.g.d.g.g.g.g.g.v.n.g.f.p.*.p.:.:.%.:.",
"/ &.$.$.$.$.$.&.$.$.*.*.f.f.g.c.b.b.d.l.l.h.g.f.a.a.p.:.=.$.+.:.-.=.;.$.o.-.-.a._ i.i.a.f.f.f.g.d.g.g.g.h.h.g.f.f.,.*.*.&.*.%.&.",
"$.$.$.$.$.$.$.o.&.&.*.:.f.f.v.v.v.g.l.l.l.g.f.g.i.g.:.&.:.*.$.%.*.%.%.) O.;.7.6.:.p.p.a.d.f.f.v.g.a.g.g.g.f.g.f.f.*.*.*.*.%.&.;.",
"$.$.$.$.$.$.$.$.*.*.*.i.p.g.g.h.v.l.d.l.d.s.f.p.a.i.:.;.$.( / / i.%.*.*.&.@.7.6.p.f.g.d.d.d.f.f.f.g.g.g.g.g.j.f.f.*.&.*.$.&.$.$.",
"$.$.o.&.$.$.$.$.&.:.*.p.f.g.n.h.j.j.h.v.b.c.f.i.f.&.*.*.=.=.} %.-.-.;.$./ ( -.p.p.p.p.g.d.i.f.g.g.a.p.g.s.f.f.s.*.*.*.&.*.&.$.$.",
"$.$.$.$.$.$.$.$.&.$.:.p.f.g.h.g.j.j.f.c.m.q.f.s.;.;.*./ =.7.%.( -.-.&.*.( ( a.a.p.f.g.g.d.d.g.f.f.g.f.g.f.s.s.s.*.*.*.$.&.&.$.&."
};
