/* XPM */
static char *b43f50a83d394044dd3a4b1f062b6c33fbGLFfymPHcdQHV8[] = {
/* columns rows colors chars-per-pixel */
"64 64 256 2 ",
"   c #375865",
".  c #32546B",
"X  c #316577",
"o  c #345252",
"O  c #4F5854",
"+  c #745D57",
"@  c #6E5B49",
"#  c #50635C",
"$  c #7A6449",
"%  c #69665A",
"&  c #7A6A5A",
"*  c #787655",
"=  c #6D614A",
"-  c #565A63",
";  c #4D5D68",
":  c #685D64",
">  c #586469",
",  c #496A78",
"<  c #586974",
"1  c #4A737B",
"2  c #597275",
"3  c #486869",
"4  c #7A6B66",
"5  c #7C7866",
"6  c #6B7372",
"7  c #B7661E",
"8  c #AE6A1F",
"9  c #945E33",
"0  c #8B633D",
"q  c #9A683A",
"w  c #9D6937",
"e  c #AD662A",
"r  c #AD6A2A",
"t  c #AB6626",
"y  c #B56625",
"u  c #B96625",
"i  c #B66825",
"p  c #BA6A26",
"a  c #B56629",
"s  c #BA662B",
"d  c #B5692A",
"f  c #BC6C29",
"g  c #BE7125",
"h  c #BD732C",
"j  c #BE7A27",
"k  c #AB6732",
"l  c #AC6B33",
"z  c #A36D3C",
"x  c #AC6B3B",
"c  c #A46738",
"v  c #B46B32",
"b  c #BB6C33",
"n  c #B56837",
"m  c #A8743B",
"M  c #BC7335",
"N  c #B87639",
"B  c #AE5D1B",
"V  c #C16E26",
"C  c #C26E2A",
"Z  c #C96B2C",
"A  c #C96E25",
"S  c #C37226",
"D  c #CA7425",
"F  c #C4722B",
"G  c #CA752C",
"H  c #C6792C",
"J  c #CB782D",
"K  c #C47A26",
"L  c #D07429",
"P  c #C26D32",
"I  c #C76931",
"U  c #C47432",
"Y  c #CA7531",
"T  c #CA7933",
"R  c #C57738",
"E  c #D17633",
"W  c #CB701F",
"Q  c #896B48",
"!  c #996A46",
"~  c #98764B",
"^  c #876955",
"/  c #946B54",
"(  c #877756",
")  c #977856",
"_  c #887B4B",
"`  c #A76C44",
"'  c #A77445",
"]  c #BD7A44",
"[  c #B37A44",
"{  c #A47855",
"}  c #A96D4D",
"|  c #856B64",
" . c #847463",
".. c #927B6A",
"X. c #8E5A42",
"o. c #728A6E",
"O. c #95855C",
"+. c #AE824B",
"@. c #94926A",
"#. c #C18141",
"$. c #185896",
"%. c #15709E",
"&. c #366A92",
"*. c #2F6D90",
"=. c #1B77AC",
"-. c #2A7BB8",
";. c #3178A6",
":. c #2C588C",
">. c #476986",
",. c #4A748A",
"<. c #557894",
"1. c #617783",
"2. c #626C87",
"3. c #476E92",
"4. c #0C76DA",
"5. c #1777D7",
"6. c #1674CD",
"7. c #237CC8",
"8. c #2578DE",
"9. c #217DE4",
"0. c #32859A",
"q. c #3788A8",
"w. c #2687B7",
"e. c #3986B3",
"r. c #3593B7",
"t. c #2E8EB2",
"y. c #1D90BD",
"u. c #47879B",
"i. c #588389",
"p. c #6F9090",
"a. c #74AB95",
"s. c #4A8FAF",
"d. c #5BB9BB",
"f. c #58A8BF",
"g. c #68B4A9",
"h. c #6397AC",
"j. c #64C0B3",
"k. c #1582D9",
"l. c #1A8ED2",
"z. c #2896C9",
"x. c #3898C7",
"c. c #269AD8",
"v. c #349BD4",
"b. c #318AC9",
"n. c #28AAD9",
"m. c #32ADD4",
"M. c #0E89E9",
"N. c #1588E9",
"B. c #1599E8",
"V. c #1998F3",
"C. c #1294F1",
"Z. c #2498FA",
"A. c #2089EB",
"S. c #0BA5ED",
"D. c #1BA6E8",
"F. c #17B9ED",
"G. c #17A9F8",
"H. c #14B3FD",
"J. c #1BB5FD",
"K. c #15BCFC",
"L. c #1CBCFE",
"P. c #17B6F6",
"I. c #0EB3F3",
"U. c #29A8E7",
"Y. c #2BB4E9",
"T. c #37BAEB",
"R. c #23A9F8",
"E. c #23B6FC",
"W. c #22BBFD",
"Q. c #27B9F5",
"!. c #33AFEE",
"~. c #1EA4D9",
"^. c #44A9C8",
"/. c #4DAECD",
"(. c #44B3E7",
"). c #4295C9",
"_. c #39C9DA",
"`. c #37CED4",
"'. c #18C8EC",
"]. c #0CC8FC",
"[. c #1CC4F3",
"{. c #15CDF3",
"}. c #1BCBF4",
"|. c #14C4FC",
" X c #1AC2FE",
".X c #13CBFB",
"XX c #1CCAFB",
"oX c #14C4F6",
"OX c #1AD5F8",
"+X c #16D1ED",
"@X c #26CAEA",
"#X c #35CAE6",
"$X c #27D6EB",
"%X c #38D8E8",
"&X c #23C3F5",
"*X c #23C4FC",
"=X c #26C9F7",
"-X c #33C9F2",
";X c #28D9F7",
":X c #36D2F6",
">X c #1EE3FF",
",X c #29E3F9",
"<X c #38E8F7",
"1X c #34E8F3",
"2X c #4DC8CD",
"3X c #7CD8DB",
"4X c #7FCACD",
"5X c #4AD9E8",
"6X c #52D3E8",
"7X c #76DFEA",
"8X c #6DD8EA",
"9X c #57E4EC",
"0X c #47E7F7",
"qX c #55E9FA",
"wX c #47F5FC",
"eX c #57FCFC",
"rX c #64FEFF",
"tX c #6CFEFE",
"yX c #6AF6F7",
"uX c #73FFFE",
"iX c #7AFEFE",
"pX c #77F6FA",
"aX c #6EEAEF",
"sX c #88D1D3",
"dX c #81DFE1",
"fX c #86E5EA",
"gX c #88EDF8",
"hX c #84FDFE",
"jX c #8BFEFD",
"kX c #87F7FA",
"lX c #93FBFF",
"zX c #9CFEFE",
"xX c #95F8F9",
"cX c #99E9EE",
"vX c #A9EAF0",
"bX c #A3FEFF",
"nX c #ABFEFE",
"mX c #AAF4F5",
"MX c #B4FDFE",
"NX c #BCFEFE",
"BX c #B0F3F7",
"VX c #A6EAEB",
"CX c #AADADE",
"ZX c #C1DEE4",
"AX c #C5FDFC",
"SX c #CBFEFE",
"DX c #CAF5F7",
"FX c #D3FEFE",
"GX c #DAFFFD",
"HX c #CAE7EB",
"JX c #E4FEFE",
"KX c #EBFEFD",
"LX c #E5FDF6",
"PX c #F4FEFE",
"IX c #FBFEFD",
"UX c #F1FEF7",
/* pixels */
"y y i i p p f f S V C C C F S F C S S h f i d d s s a y a y a f b F M M R R Z L L E E J D D F Z C p u u i y i y y y y y y t y y ",
"a y y i p p p f f V F C F F F F S S f f f i i a s s s u y a a f d M [ ` c x N Y T E T T K D A Z p f u p u y i y y 8 y y 7 y y y ",
"i y p p p f f C S C F F F F F F F F f f f f a s s u u y y i d f b t 0 ^ $ $ 0 x #.E R R J D A V f s i y y i y y t y y y y y y y ",
"f f f p f f V C S F F F F F f h C C C f d a a y u y u p p i f M ' Q & 6 1.2 6 Q ] R R Y G D V C p f p i i y y y i y y 8 y y 7 y ",
"f f f f V S S S G G Y G U F C f C C s s i y i y y 7 7 f f g h ' | p.p.h.f./.h.2 ! P T F p g g p p i y y i y y i y y y y y y y y ",
"h g S C C F F G H H T Y F F h C p s s u a i y 7 y 7 7 f f F U z 4 1.< ,.3.).^.u.$ k P C g g p i p a i y i y i y y y y y t 7 y y ",
"S h C S S F G F T Y Y Y F S f p f s s y y y i 7 7 7 i p f U M w $ 5 ~ ) 4 ,.x.f.% q b C p p d a i a y a y y y y y y y i i i i i ",
"S S F F F F F G G Y G U h C f p s s a a a y i 8 y y p f v M N w Q ! ] ] Q < x.m.< Q x h p i s d d a y i i i y i y y y p p i p p ",
"G S F F G F G F G F F h f p p i y y y y t y t i y i f f b b n k 9 ` R ] / > b.(.<.+ ` v i p u u s i i a u y y i i i p f f f f f ",
"S F G F F F F F F F f f p p 7 y y y y y t y i i i f d b b N n k c c P x + , z.(.<.> ! d y u u u a d i i i y y y i p f f f S S h ",
"S S F S S C C C f f f f i y y y y y t y y t i i f i f b b N d 9 ! X.} X.- &.c.(.q.# 0 t y y u u f a p y y y u u p p C C C F F C ",
"F S S F C C C f d f u i i y 7 i y 8 i y y i i f f h P b b N v w 9 X.! @ , =.~.T.q.# q i u y u u i i y p i p u u f V S C C U F F ",
"F S C f C C s f s y y y y 7 y y 7 y i y y a f f f C F U M U M v 9 } ^ - &.l.F.T.s.- q a d a u u a i p y u p f f Z C C G G F F G ",
"h C C C f p u u u y y y y y y t y y y i i i f C C F F F F F U M N } % ,.b.B.Q.-Xs.: 9 a a n a y y i y f u s V C C G T G G G F G ",
"C h f f s u a y y y y y t y t 8 y u u f f f C C Z D G G G G J H N $ 1 ).U.G.&X_.u.+ ` a y i y y y i f y p C f C G Y Y G L G G F ",
"f f f f s u y y y y y y y y y p i u i f s f C Z F F F G G G J +.q % 0.!.G.J.*Xm.1 @ z a y y y i f f p s u s C Z C F J G G G G F ",
"d f i f a y a a t a y y y t y p 7 7 i d C Z P U J D G H G J R [ = 1 m.E.J.L.Q.m.# 0 w r y y u s y u y p s u C C C C P G F G S G ",
"s f f i y a a a y a y y y y y y 7 7 d f C Z P Y S L H H J T N _ 3 q.Y.XX X*X*Xw.o $ w a i u C u u f u f V s C s C C C F F G S H ",
"u u i i a y y y y y y a y y y y g d g f S F Y Y J D V J E ] Q # ;.n.*X.X].XXE.w.  & ! k n s s u p y f u p f C C C C C F F S h S ",
"u y y u y a y y a y y y u u p f f g h h h S Y Y K H R [ ` $ > *.n.'.XX.X].K.n.-.>.4 ! n s s V u u f u f f C C F U F Y C h S f h ",
"y y y y y a y a y y y y u p f f C f h h K D G H F #.{  .< ,.r.n.@XoXoXoX XQ.w.&.2.| } n p p p s s p p C C C F D Y G G F C V p p ",
"7 y y y a y y y i i f i p f f f C F h S D G H N { ..6 ,.e.n.E.L.K.oXXX&XU.r.>.< 4 / ` s 7 g p u u p s V C V G G J G H G C p p p ",
"y y y y y y u u p u p p f f f C U Y G G E Y J [ ..<.e.v.Y.E.P.L. X XL.Y.e.1 + ! c k n s i 8 u 7 p f C C F F G J T J G F V 7 y u ",
"y y y y u y s y u p p p f f C C I Y G Z Y R ] O.<.b.U.E.L.K.H.I.P.Q.n.r.< + x a s a a a i p 7 u V C C C V F G J J J J C V u y y ",
"y y y y y u p y u f f p C V C F F U F Y T ] ..1.b.R.Q.W.K.S.I.G.E.!.;.3 ^ x e y t e y 7 i p V V C C h F S G S G J G G f f p y y ",
"a y y y y p f p p f V V C C G F G F Y R M +.6 s.U.L.J.P.H.H.H.E.!.-.3 & m 7 B B r r 8 7 u p s f C U F G G G G G G F S S f i u y ",
"y y y y u p C p V V F F F D F F H g F M N O.u.U.R.W.J.S.G.G.G.E.c.*.% z t 7 y y y t 7 7 p d b P P F F H G H G G F F S f p u y y ",
"y y y y u u p f C C F F F G F F g g M N ) 6 v.E.J.S.B.B.V.G.G.R.-.>.^ e i 7 y i y i i u i p b P U S F G F G F F C V f p p y u y ",
"y y y y u p p V C F G G G G F D S F I } 2.s.U.H.G.N.6.5.N.Z.J.Z.-.>./ t i t t r t y y u 7 g f f C F F H U F F S f p p p y i y i ",
"y a i i u u f V F J Y J G G F S A p ` ^ ;.U.J.G.N.4.5.5.k.R.R.D.6.&. .` t t v r y u s s p 7 S g S S F U Y F F f f p i p y y y y ",
"y e y y p p f C G G E J G D V V f r { > b.!.R.V.4.5.8.5.N.G.J.G.B.%.; ^ x a d a 7 u s s g g V S S K H F F F F f p p i y y y i i ",
"a y a p u f C S G J J G C F V f i m ^ , v.R.V.C.M.A.9.4.M.L.K.I.V.c.;.< ^ ` n f 7 u b b f h g S g h H S F U f f p p y y y i y y ",
"a y i p f f S F G Y Y Y h g g i 8 z 4 ,.v.V.C.9.N.A.N.M.G.L.K.|.H.S.l.w.>.| [ f V u C P I U f K h S S C F C f f f p u y u y y y ",
"s f p f p h S F Z G G F f h i i i w % >.v.C.9.Z.Z.C.C.V.P.|.K.K.H.H.G.n.-.>.5 } [ b P f Y C H h V V C C h S b f p p y u y u 7 u ",
"s f f f S S S G G F C C f f i i h q O . 7.5.N.Z.V.C.C.L.L.|.|.K.K.J.P.D.~.w.&.; ( N M G Z Z G U S C f g C f f f s y y y p y y p ",
"C f f f S S G F G C C f p i i i a z & . $.6.N.V.C.V.J.|.|.].].].|.K.P.K.F.D.k.:.; ) N H S D C Y C V g f f p f p y p u i y y y y ",
"C C C C F H h F C C C p p 7 i y a ` } - $.6.B.C.C.G.|.|.].].+X{.OX+X].].I.P.V.l.:.> { j S A Y Z C F f f f p f y i i i y y y y i ",
"C F F F F G F h C f V u u 7 7 y n k ` : $.4.C.S.K.XXXXOX;X,X;X,X,X>X>X>X.X|.J.Z.7.:.& +.h A E Z C F f f p i y u y i y i y i y i ",
"F F F G F M F f p p u u u u y y B k / - $.k.S.|.{.OXOX$X1X0X<X0X0X0X<X,X>XOX}.L.R.-.X o.m J S Y C b f f y y y y y a i i i t i y ",
"D D F F U F f p C u u u 7 p 8 y a ! 4 . =.D. X.X+X,X0X9XaXkXjXhXhXhXtX9X<X,XOXXXL.U.;.  ~ R S f f f f i y y y y y a i i i i y y ",
"D F D C C f f f p p u 7 u y y r c & . %.n.[.[.}.=XqXgXmXAXGXGXFXAXNXnXjXyXwX;XoXXXQ.c.*.* m N h f s y y y a a y y y y y y y y y ",
"D D F C f f f f p p u y y y y c Q O %.U.&XoX'.@X5XlXAXJXPXIXPXPXJXFXAXnXjXrX<X{.'.*XR.;.O ~ m g f y y y y y t y y a y y y y y y ",
"D G D C f f i f u u 7 y y y e ! % X n.*XoX'.OX%X7XNXFXPXPXPXIXIXLXLXAXMXbXhX0X}.oX*XQ.t.o ( m p y y y y a y y a y y y y 7 i i i ",
"G F F C f f s y u p p y y r r ! 3 q.T.|..XOX;X9XbXSXHXPXPXIXIXIXLXGXDXMXnXjXqX@XXX X*Xz.  ( m y y y y y y y y y y y y y i f i f ",
"G G F C f s s u u u u p r r k Q >.^.=X.XOX$X5XkXNXCXZXPXIXIXIXPXLXGXDXNXbXjXqX&X[.|.W.z.  ^ x y y t y 8 y y y a y y y p f f f g ",
"F F F C C s C u p 7 7 i t r k $ *.T.W..X;X#X7XAXBXsXZXPXPXPXPXPXJXGXSXNXzXhX9X'.[.XXL.c.. / x y y y B y y y y y y y u f f h h S ",
"S S C b C s u u u 7 i i t x w = q.Q.*X=X0X6XvXSXcX4XDXPXPXIXIXPXJXFXSXMXbXpX0X'.{.XX Xc.. ..z t y y y t y y y y y u f f C C F C ",
"F F C C s s C u p 8 y i r v t = q.&X*X*XqX8XvXSX3X3XFXPXIXIXIXLXJXFXAXMXzXpX0X'.+X.X*Xn.X | c t y t y y y y y y u p f C C F F F ",
"f f f C f f y s y i d a d r e $ u.#XoX}.0X6XBXAXfX3XSXPXUXIXUXLXFXSXNXnXlXiXwX+X{.{.&XT.&.- q a t y y y y y y u u V C F F F G F ",
"f f p s p s u u y y i a d d i Q i.m.@X'.5X(.cXNX7XfXSXJXKXKXLXGXSXAXMXbXjXuX0X=X'.F.&XY.*.- c B y y a y y y u p V V S S F F F F ",
"p f p f f y u u y y i a d d d ' o.h.#X'.=X#XcXNXfXdXAXGXFXDXSXAXNXmXnXlXhXuX0X:X[.F.*Xn.X % ! s a a a a i p i f S C F G G G D G ",
"u u u u p u a y u y a i d i f x ) o./.&X@X#XgXnXxXdXvXSXBXVXNXMXnXbXzXkXiXrX<X;X=X[.*Xy.  * c s s u s u f f f f S F F G F F G G ",
"s p f y u y y y y y y p i i f M N O.f.-X=X#XpXbXxX7XfXMXcXcXnXnXzXlXjXiXuXeX%X@XOX*XQ.%.O ^ n I s p C C C C C F F F F F F F G G ",
"f u i u y y y y y y y p f g f h h +.p./.#X%XaXjXaXaX7XxXxXxXxXzXlXhXiXtXrXwX@X+X=X=Xn.X O ' n I f C P C C F F G G G F G F F G G ",
"a a s a a y y y y 7 y u f C M F S N O.a.(.#X9XuX9X9X9XyXgXjXjXjXhXuXtXrXeX1X+X+X}.Y.0.# Q v l f C C F F U F G G G F F F F F C P ",
"y u y y y s y y y y i p f f F F D j m O.g.2X5XrX9XwX0X5X6XyXiXuXuXrXeXeXwX$X+X$XY.r.3 $ m i g f C C F G G G G G G F F C C C C C ",
"y a y e y t a y y y p p f S F G G Y M +.@.a.2XwXeX0X:X-X`.%XrXeXeXeXeX<X,X$X:Xm.q.1 ^ ` b f V S F F G Y J T G T G S V V C f C f ",
"y y y y a y y y y y p p V S F F Y G H #.+.@.g.2X9X5X-X}.F.$XwXwXwXwX<X1X$X_./.u.6 ^ ` b P I D S D F G T J L T G G S V S f V p f ",
"y y a y y y y a y u p f V F G G T J K K H +.@.a.g.2X`.+X+X+X,X1X1X1X1X`._./.p.5 ! x C C I Z E D G F G L G T J G F S f f f f p p ",
"y y y y y a y y y y p u Z F G G J J H K J T N O.o.g.j.`.`.`.`.`.`.2X2Xd.g.o.( m n C F A Z E Z S G D D G G G J J S f f p u p i u ",
"y y y y y y y a i i f f F G J G T Y Y H J G N N m ~ _ o.a.j.j.a.g.o.( _ ~ ! m v b C S D C Y Y Z Z Z D G J G F F S g p i i i y p ",
"y y y y y y t y p p f f F G T L E L Y H K D U F G S g m 0 o.o.o.( ! k s t y f p f F S S J U F Y G G G G G F F S S 7 p p p y y y ",
"7 y y y 7 y y y y p f f Z G L L L G H U K K F Z u u C b z w w w m l y y s f V u h S D D D Y F Y Y D Z F F F S S f f i p i i y y ",
"y y y 7 y y y y i i f S F J T J L L U H g j Z Z V C s s v d u y y d y 7 f u 7 V i G D A D Z P Y G F F G F S S S p p p i i i y i "
};
